<svg xmlns="http://www.w3.org/2000/svg" width="120" height="120" fill="none" xmlns:v="https://vecta.io/nano"><rect width="120" height="120" rx="32" fill="#faf8f6"/><path fill-rule="evenodd" d="M60 25c-19.328 0-35 16.063-35 35.891 0 15.859 10.031 29.297 23.938 34.047 1.75.328 2.391-.781 2.391-1.734l-.047-6.109c-9.734 2.172-11.797-4.812-11.797-4.812-1.594-4.141-3.891-5.25-3.891-5.25-3.172-2.234.234-2.187.234-2.187 3.516.25 5.359 3.703 5.359 3.703 3.125 5.484 8.188 3.906 10.188 2.984.313-2.312 1.219-3.906 2.219-4.797C45.828 75.828 37.656 72.75 37.656 59c0-3.922 1.359-7.125 3.594-9.625-.359-.906-1.562-4.562.344-9.5 0 0 2.938-.969 9.625 3.672 2.797-.797 5.781-1.187 8.766-1.203 2.969.016 5.969.406 8.766 1.203 6.688-4.641 9.609-3.672 9.609-3.672 1.906 4.938.703 8.594.344 9.5 2.234 2.516 3.594 5.719 3.594 9.625 0 13.781-8.187 16.813-15.984 17.703 1.25 1.109 2.375 3.297 2.375 6.641l-.047 9.844c0 .953.625 2.078 2.406 1.719C84.984 90.172 95 76.734 95 60.891 95 41.063 79.328 25 60 25z" fill="#24292f"/></svg>