<svg width="48" height="48" viewBox="0 0 48 48" fill="none" xmlns="http://www.w3.org/2000/svg">
<path d="M28.3943 7.5H11.5284C8.58529 7.5 5.87989 9.11592 4.48458 11.7072L3.68118 13.1992C2.33075 15.7072 2.41567 18.744 3.90414 21.1725L13.409 36.6805C14.8634 39.0535 17.4466 40.5 20.2298 40.5H36.0296C38.8077 40.5 41.3869 39.0588 42.8429 36.6928L43.9932 34.8235C45.537 32.3149 45.5773 29.1609 44.0983 26.6137L35.3127 11.4829C33.881 9.01734 31.2454 7.5 28.3943 7.5Z" fill="#AB9DFF"/>
<path d="M25.4798 33H39.6008C42.426 33 44.2634 30.0269 43 27.5L40.5 22.5L35.3214 13.4375C34.7796 12.4892 34.0492 11.6619 33.1755 11.0066L32.3465 10.3849C31.7846 9.96345 31.1697 9.61788 30.5176 9.35704L28.6404 8.60616C28.0489 8.36957 27.4313 8.20447 26.8006 8.11438L23.0628 7.5804C22.6881 7.52687 22.31 7.5 21.9315 7.5H12.8609C12.2929 7.5 11.7308 7.61537 11.2087 7.83912C8.85796 8.84659 7.94844 11.7053 9.28492 13.8859L18.659 29.1805C20.1134 31.5535 22.6966 33 25.4798 33Z" fill="#EEF4F3"/>
<path d="M11.5284 8.5H28.3943C30.889 8.5 33.1952 9.82767 34.4479 11.9851L43.2335 27.1158C44.5277 29.3447 44.4923 32.1044 43.1416 34.2994L41.9912 36.1687C40.7173 38.2389 38.4605 39.5 36.0296 39.5H20.2298C17.7945 39.5 15.5342 38.2343 14.2616 36.1579L4.75674 20.65C3.45433 18.525 3.38003 15.8678 4.56165 13.6733L5.36505 12.1813C6.58594 9.91393 8.95318 8.5 11.5284 8.5Z" stroke="#31373F" stroke-width="2"/>
<path d="M30.6464 27.4203C29.7332 27.4203 28.8406 27.3233 27.9685 27.1292C27.1104 26.9352 26.2764 26.6502 25.4665 26.2743C25.0851 26.0941 24.706 25.8958 24.3293 25.6795C23.5985 25.2598 23.2473 24.5908 23.4401 24.1453V24.1453C23.702 23.5404 24.8316 23.6092 25.8421 24.1429C26.2507 24.3586 26.6317 24.5294 26.9852 24.6553C27.8439 24.9463 28.6736 25.0918 29.4744 25.0918C29.9099 25.0918 30.2678 25.0433 30.5483 24.9463C30.8357 24.8372 31.021 24.6856 31.1042 24.4915C31.1874 24.2975 31.151 24.0671 30.995 23.8003C30.8815 23.6062 30.7295 23.4304 30.5389 23.2727C30.3413 23.103 30.1157 22.9574 29.8621 22.8362C29.6015 22.7028 29.3163 22.5875 29.0067 22.4905C28.69 22.3814 28.3558 22.2904 28.0042 22.2177C27.6455 22.1328 27.2693 22.0661 26.8757 22.0176C25.9967 21.8599 25.1984 21.6719 24.4807 21.4536C23.7559 21.2232 23.101 20.9443 22.5162 20.6169C21.9242 20.2773 21.4058 19.8953 20.9608 19.4708C20.53 19.0464 20.1585 18.5673 19.8464 18.0337C19.5273 17.488 19.3735 16.9847 19.3849 16.5239C19.3893 16.0509 19.5381 15.6446 19.8312 15.3051C20.1384 14.9655 20.5619 14.7048 21.1018 14.5229C21.6557 14.341 22.2979 14.25 23.0284 14.25C23.9276 14.25 24.7675 14.341 25.5483 14.5229C26.3219 14.6926 27.0503 14.9413 27.7335 15.2687C28.0059 15.3966 28.272 15.5357 28.5316 15.6858C29.2482 16.1001 29.5237 16.7577 29.276 17.1629L29.1873 17.3079C28.9164 17.7511 28.0203 17.6733 27.2074 17.2879V17.2879C26.7355 17.0575 26.2639 16.8877 25.7927 16.7786C25.3284 16.6573 24.8855 16.5966 24.464 16.5966C24.0004 16.5966 23.6319 16.6512 23.3586 16.7604C23.0782 16.8574 22.8963 17.0029 22.8131 17.1969C22.744 17.391 22.7909 17.6275 22.9541 17.9064C23.0817 18.1247 23.2584 18.3187 23.4842 18.4885C23.7099 18.6583 23.9812 18.8099 24.298 18.9433C24.6078 19.0646 24.9596 19.1737 25.3535 19.2707C25.7475 19.3677 26.1694 19.4526 26.6194 19.5254C27.4701 19.6588 28.2683 19.8346 29.0142 20.0529C29.76 20.2712 30.4428 20.538 31.0628 20.8533C31.6896 21.1565 32.2466 21.5203 32.7337 21.9448C33.2136 22.3571 33.6061 22.824 33.9111 23.3455C34.4146 24.2065 34.6049 24.9403 34.4818 25.5466C34.3588 26.153 33.9715 26.6199 33.3201 26.9473C32.6616 27.2626 31.7703 27.4203 30.6464 27.4203Z" fill="#31373F"/>
</svg>
