<svg width="68" height="50" viewBox="0 0 68 50" fill="none" xmlns="http://www.w3.org/2000/svg">
<path d="M10.8398 39.9998V18.7598H16.9198L17.1198 23.0798L15.8398 23.5598C16.1332 22.5998 16.6532 21.7332 17.3998 20.9598C18.1732 20.1598 19.0932 19.5198 20.1598 19.0398C21.2265 18.5598 22.3465 18.3198 23.5198 18.3198C25.1198 18.3198 26.4665 18.6532 27.5598 19.3198C28.6532 19.9598 29.4798 20.9332 30.0398 22.2398C30.5998 23.5198 30.8798 25.0932 30.8798 26.9598V39.9998H24.4398V27.4798C24.4398 26.6265 24.3198 25.9198 24.0798 25.3598C23.8398 24.7998 23.4665 24.3865 22.9598 24.1198C22.4798 23.8265 21.8798 23.6932 21.1598 23.7198C20.5998 23.7198 20.0798 23.8132 19.5998 23.9998C19.1198 24.1598 18.7065 24.4132 18.3598 24.7598C18.0132 25.0798 17.7332 25.4532 17.5198 25.8798C17.3332 26.3065 17.2398 26.7732 17.2398 27.2798V39.9998H14.0798C13.3332 39.9998 12.6932 39.9998 12.1598 39.9998C11.6265 39.9998 11.1865 39.9998 10.8398 39.9998Z" fill="#31373F"/>
<path d="M46.2305 40.3998C44.0171 40.3998 42.0438 39.9198 40.3105 38.9598C38.6038 37.9998 37.2438 36.6932 36.2305 35.0398C35.2438 33.3865 34.7505 31.4932 34.7505 29.3598C34.7505 27.2265 35.2438 25.3332 36.2305 23.6798C37.2438 22.0265 38.6038 20.7198 40.3105 19.7598C42.0438 18.7998 44.0171 18.3198 46.2305 18.3198C48.4438 18.3198 50.4038 18.7998 52.1105 19.7598C53.8438 20.7198 55.2038 22.0265 56.1905 23.6798C57.1771 25.3332 57.6705 27.2265 57.6705 29.3598C57.6705 31.4932 57.1771 33.3865 56.1905 35.0398C55.2038 36.6932 53.8438 37.9998 52.1105 38.9598C50.4038 39.9198 48.4438 40.3998 46.2305 40.3998ZM46.2305 34.8798C47.1905 34.8798 48.0438 34.6398 48.7905 34.1598C49.5371 33.6798 50.1238 33.0265 50.5505 32.1998C50.9771 31.3732 51.1771 30.4265 51.1505 29.3598C51.1771 28.2932 50.9771 27.3465 50.5505 26.5198C50.1238 25.6665 49.5371 24.9998 48.7905 24.5198C48.0438 24.0398 47.1905 23.7998 46.2305 23.7998C45.2705 23.7998 44.4038 24.0398 43.6305 24.5198C42.8838 24.9998 42.2971 25.6665 41.8705 26.5198C41.4438 27.3465 41.2438 28.2932 41.2705 29.3598C41.2438 30.4265 41.4438 31.3732 41.8705 32.1998C42.2971 33.0265 42.8838 33.6798 43.6305 34.1598C44.4038 34.6398 45.2705 34.8798 46.2305 34.8798Z" fill="#31373F"/>
<path d="M6.00025 33.0001C26.0483 12.6075 30.5307 17.4311 28.4765 20.8047C21.7053 31.9244 18.1963 45.3045 30.8902 31.5978C54.0495 6.59071 58.6935 16.4233 48.5027 28.9699C38.3119 41.5166 45.9888 37.4529 61.3481 27.5189" stroke="#AB9DFF" stroke-width="4" stroke-linecap="round" stroke-linejoin="round"/>
</svg>
