<svg width="217" height="213" viewBox="0 0 217 213" fill="none" xmlns="http://www.w3.org/2000/svg">
<path d="M83.059 13.0168C95.868 -3.67195 121.02 -3.67194 133.829 13.0168L137.151 17.345C143.335 25.4018 152.976 30.0447 163.13 29.856L168.585 29.7546C189.619 29.3638 205.301 49.0285 200.24 69.4482L198.927 74.7439C196.484 84.6019 198.865 95.0345 205.344 102.856L208.824 107.058C222.244 123.259 216.647 147.78 197.527 156.555L192.568 158.83C183.337 163.066 176.665 171.432 174.59 181.374L173.474 186.715C169.175 207.309 146.514 218.222 127.732 208.743L122.862 206.285C113.794 201.709 103.094 201.709 94.0265 206.285L89.1556 208.743C70.3742 218.222 47.713 207.309 43.4135 186.715L42.2985 181.374C40.2228 171.432 33.5509 163.066 24.3201 158.83L19.3613 156.555C0.24069 147.78 -5.35613 123.259 8.06395 107.058L11.5443 102.856C18.0231 95.0345 20.4043 84.6018 17.9608 74.7439L16.6481 69.4481C11.5865 49.0284 27.2685 29.3638 48.3026 29.7546L53.7577 29.856C63.9122 30.0447 73.5534 25.4017 79.7371 17.345L83.059 13.0168Z" fill="url(#paint0_linear_815_2431)"/>
<defs>
<linearGradient id="paint0_linear_815_2431" x1="0.699216" y1="106.348" x2="175.072" y2="21.6747" gradientUnits="userSpaceOnUse">
<stop stop-color="#BBC0FC"/>
<stop offset="1" stop-color="#F4EFEB"/>
</linearGradient>
</defs>
</svg>
