<svg width="56" height="296" viewBox="0 0 56 296" fill="none" xmlns="http://www.w3.org/2000/svg">
<path d="M13 40.7721L35 40.7721L35 32.4521L41 32.4521L41 56.0921L35 56.0921L35 47.5721L13 47.5721L13 40.7721Z" fill="#31373F"/>
<path d="M13 60.2231L42.6 60.2231L42.6 66.5031L29.92 66.5031L29.44 65.2231C30.4 65.5164 31.2667 66.0364 32.04 66.7831C32.84 67.5564 33.48 68.4764 33.96 69.5431C34.44 70.6098 34.68 71.7298 34.68 72.9031C34.68 74.5031 34.3467 75.8498 33.68 76.9431C33.04 78.0364 32.0667 78.8631 30.76 79.4231C29.48 79.9831 27.9067 80.2631 26.04 80.2631L13 80.2631L13 73.8231L25.52 73.8231C26.3734 73.8231 27.08 73.7031 27.64 73.4631C28.2 73.2231 28.6134 72.8498 28.88 72.3431C29.1734 71.8631 29.3067 71.2631 29.28 70.5431C29.28 69.9831 29.1867 69.4631 29 68.9831C28.84 68.5031 28.5867 68.0898 28.24 67.7431C27.92 67.3964 27.5467 67.1164 27.12 66.9031C26.6934 66.7164 26.2267 66.6231 25.72 66.6231L13 66.6231L13 63.4631C13 62.7164 13 62.0764 13 61.5431C13 61.0098 13 60.5698 13 60.2231Z" fill="#31373F"/>
<path d="M12.6 95.7337C12.6 93.387 13.0667 91.347 14 89.6137C14.96 87.8804 16.2534 86.5337 17.88 85.5737C19.5334 84.6137 21.4134 84.1337 23.52 84.1337C25.1467 84.1337 26.64 84.4004 28 84.9337C29.36 85.467 30.5334 86.2137 31.52 87.1737C32.5334 88.1337 33.3067 89.267 33.84 90.5737C34.4 91.907 34.68 93.3604 34.68 94.9337C34.68 96.427 34.4134 97.787 33.88 99.0137C33.3467 100.267 32.6 101.347 31.64 102.254C30.68 103.16 29.5467 103.854 28.24 104.334C26.9334 104.814 25.5067 105.027 23.96 104.974L22.24 104.934L22.24 88.0137L25.84 87.0937L25.84 99.7337L25.08 99.0537L25.88 99.0537C26.5467 99.0004 27.1334 98.787 27.64 98.4137C28.1734 98.067 28.5867 97.6004 28.88 97.0137C29.1734 96.427 29.32 95.7604 29.32 95.0137C29.32 93.9737 29.1067 93.0804 28.68 92.3337C28.28 91.6137 27.68 91.067 26.88 90.6937C26.1067 90.3204 25.1467 90.1337 24 90.1337C22.8267 90.1337 21.8 90.3737 20.92 90.8537C20.0667 91.3604 19.4 92.0804 18.92 93.0137C18.44 93.9737 18.2 95.107 18.2 96.4137C18.2 97.3204 18.3334 98.1204 18.6 98.8137C18.8667 99.5337 19.32 100.307 19.96 101.134L15.72 104.134C15 103.307 14.4134 102.427 13.96 101.494C13.5067 100.56 13.1734 99.6004 12.96 98.6137C12.72 97.6537 12.6 96.6937 12.6 95.7337Z" fill="#31373F"/>
<path d="M21.56 108.251L27.44 108.251L27.44 122.091L21.56 122.091L21.56 108.251Z" fill="#31373F"/>
<path d="M13 127.661L41 127.661L41 133.741L24.4 143.941L24.44 139.581L41 149.901L41 155.741L13 155.741L13 149.141L21.72 149.141C24.12 149.141 26.28 149.194 28.2 149.301C30.12 149.434 32.0267 149.648 33.92 149.941L31.84 150.701L19.8 142.941L19.8 140.301L31.76 132.701L33.92 133.461C32.1334 133.754 30.2934 133.954 28.4 134.061C26.5334 134.194 24.3067 134.261 21.72 134.261L13 134.261L13 127.661Z" fill="#31373F"/>
<path d="M12.64 169.938C12.64 168.151 13.1067 166.551 14.04 165.138C15 163.751 16.3067 162.645 17.96 161.818C19.64 160.991 21.5334 160.578 23.64 160.578C25.8 160.578 27.7067 160.991 29.36 161.818C31.0134 162.645 32.3067 163.778 33.24 165.218C34.2 166.658 34.68 168.298 34.68 170.138C34.68 171.151 34.5334 172.071 34.24 172.898C33.9467 173.751 33.5334 174.498 33 175.138C32.4934 175.778 31.8934 176.325 31.2 176.778C30.5334 177.231 29.8134 177.565 29.04 177.778L29.2 176.458L34.24 176.458L34.24 182.818L13 182.818L13 176.338L18.12 176.338L18.16 177.778C17.4134 177.565 16.7067 177.218 16.04 176.738C15.3734 176.258 14.7867 175.671 14.28 174.978C13.7734 174.285 13.3734 173.511 13.08 172.658C12.7867 171.805 12.64 170.898 12.64 169.938ZM18.04 171.698C18.04 172.685 18.2667 173.538 18.72 174.258C19.1734 174.978 19.8134 175.538 20.64 175.938C21.4934 176.338 22.4934 176.538 23.64 176.538C24.7867 176.538 25.7734 176.338 26.6 175.938C27.4534 175.538 28.1067 174.978 28.56 174.258C29.04 173.538 29.28 172.685 29.28 171.698C29.28 170.738 29.04 169.898 28.56 169.178C28.1067 168.485 27.4534 167.938 26.6 167.538C25.7734 167.138 24.7867 166.938 23.64 166.938C22.4934 166.938 21.4934 167.138 20.64 167.538C19.8134 167.938 19.1734 168.485 18.72 169.178C18.2667 169.898 18.04 170.738 18.04 171.698Z" fill="#31373F"/>
<path d="M19.24 194.625L24.04 192.265L34.24 202.185L34.24 210.625L19.24 194.625ZM13 188.465L42.6 188.465L42.6 194.865L13 194.865L13 188.465ZM13 202.865L22.68 195.385L26.2 199.905L13 210.425L13 202.865Z" fill="#31373F"/>
<path d="M13 213.864L34.24 213.864L34.24 220.264L13 220.264L13 213.864ZM38.44 217.064C38.44 215.864 38.72 214.918 39.28 214.224C39.8667 213.558 40.6934 213.224 41.76 213.224C42.72 213.224 43.5067 213.571 44.12 214.264C44.7334 214.958 45.04 215.891 45.04 217.064C45.04 218.264 44.7467 219.198 44.16 219.864C43.6 220.531 42.8 220.864 41.76 220.864C40.7734 220.864 39.9734 220.518 39.36 219.824C38.7467 219.158 38.44 218.238 38.44 217.064Z" fill="#31373F"/>
<path d="M13 226.278L34.24 226.278L34.24 232.358L29.92 232.558L29.44 231.278C30.4 231.571 31.2667 232.091 32.04 232.838C32.84 233.611 33.48 234.531 33.96 235.598C34.44 236.664 34.68 237.784 34.68 238.958C34.68 240.558 34.3467 241.904 33.68 242.998C33.04 244.091 32.0667 244.918 30.76 245.478C29.48 246.038 27.9067 246.318 26.04 246.318L13 246.318L13 239.878L25.52 239.878C26.3734 239.878 27.08 239.758 27.64 239.518C28.2 239.278 28.6134 238.904 28.88 238.398C29.1734 237.918 29.3067 237.318 29.28 236.598C29.28 236.038 29.1867 235.518 29 235.038C28.84 234.558 28.5867 234.144 28.24 233.798C27.92 233.451 27.5467 233.171 27.12 232.958C26.6934 232.771 26.2267 232.678 25.72 232.678L13 232.678L13 229.518C13 228.771 13 228.131 13 227.598C13 227.064 13 226.624 13 226.278Z" fill="#31373F"/>
<path d="M3.80003 261.388C3.80003 259.655 4.05336 257.922 4.56003 256.188C5.0667 254.482 5.72003 253.095 6.52003 252.028L11 254.268C10.6267 254.828 10.3067 255.442 10.04 256.108C9.7467 256.802 9.52003 257.522 9.36003 258.268C9.20003 259.015 9.12003 259.775 9.12003 260.548C9.12003 261.908 9.32003 263.015 9.72003 263.868C10.12 264.722 10.7334 265.362 11.56 265.788C12.36 266.215 13.3734 266.428 14.6 266.428L18.16 266.428L17.96 267.668C17.08 267.482 16.28 267.015 15.56 266.268C14.84 265.548 14.2534 264.655 13.8 263.588C13.3734 262.522 13.16 261.388 13.16 260.188C13.16 258.268 13.6 256.548 14.48 255.028C15.3867 253.535 16.6267 252.348 18.2 251.468C19.8 250.615 21.64 250.188 23.72 250.188C25.8534 250.188 27.7334 250.615 29.36 251.468C31.0134 252.322 32.3067 253.495 33.24 254.988C34.2 256.482 34.68 258.162 34.68 260.028C34.68 260.828 34.5867 261.588 34.4 262.308C34.2134 263.055 33.96 263.735 33.64 264.348C33.3467 264.988 32.9867 265.548 32.56 266.028C32.16 266.535 31.72 266.935 31.24 267.228C30.76 267.548 30.2667 267.762 29.76 267.868L29.44 266.548L34.24 266.788L34.24 272.868L14.72 272.868C12.9867 272.868 11.4534 272.602 10.12 272.068C8.76003 271.562 7.61336 270.802 6.68003 269.788C5.72003 268.802 5.00003 267.602 4.52003 266.188C4.04003 264.775 3.80003 263.175 3.80003 261.388ZM18.12 261.548C18.12 262.588 18.3467 263.482 18.8 264.228C19.28 265.002 19.9334 265.588 20.76 265.988C21.5867 266.415 22.56 266.628 23.68 266.628C24.8 266.628 25.7734 266.415 26.6 265.988C27.4534 265.588 28.1067 265.002 28.56 264.228C29.04 263.482 29.28 262.588 29.28 261.548C29.28 260.535 29.04 259.655 28.56 258.908C28.1067 258.162 27.4534 257.575 26.6 257.148C25.7734 256.748 24.8 256.548 23.68 256.548C22.56 256.548 21.5867 256.748 20.76 257.148C19.9334 257.575 19.28 258.162 18.8 258.908C18.3467 259.655 18.12 260.535 18.12 261.548Z" fill="#31373F"/>
<path d="M12.6 285.196C12.6 283.116 12.9334 281.276 13.6 279.676C14.2667 278.102 15.16 276.849 16.28 275.916L19.64 279.796C18.8134 280.622 18.2 281.556 17.8 282.596C17.4267 283.636 17.24 284.622 17.24 285.556C17.24 285.929 17.28 286.262 17.36 286.556C17.44 286.849 17.5467 287.089 17.68 287.276C17.84 287.489 18.0134 287.649 18.2 287.756C18.4134 287.862 18.6534 287.916 18.92 287.916C19.4534 287.916 19.8667 287.676 20.16 287.196C20.2934 286.956 20.4534 286.556 20.64 285.996C20.8267 285.436 21.04 284.716 21.28 283.836C21.6 282.582 21.9734 281.489 22.4 280.556C22.8534 279.649 23.3734 278.902 23.96 278.316C24.52 277.782 25.1334 277.369 25.8 277.076C26.4934 276.782 27.2667 276.636 28.12 276.636C29.1067 276.636 30 276.862 30.8 277.316C31.6 277.796 32.2934 278.422 32.88 279.196C33.4667 279.996 33.9067 280.902 34.2 281.916C34.52 282.956 34.68 284.022 34.68 285.116C34.68 286.289 34.5467 287.409 34.28 288.476C34.0134 289.542 33.64 290.529 33.16 291.436C32.68 292.369 32.1067 293.196 31.44 293.916L27.68 290.556C28.1334 290.076 28.5334 289.529 28.88 288.916C29.2534 288.329 29.5467 287.716 29.76 287.076C29.9734 286.436 30.08 285.849 30.08 285.316C30.08 284.916 30.04 284.556 29.96 284.236C29.9067 283.942 29.8 283.689 29.64 283.476C29.5067 283.262 29.3334 283.102 29.12 282.996C28.9334 282.889 28.7067 282.836 28.44 282.836C28.1734 282.836 27.92 282.902 27.68 283.036C27.44 283.196 27.24 283.409 27.08 283.676C26.92 283.942 26.7334 284.369 26.52 284.956C26.3334 285.542 26.0934 286.342 25.8 287.356C25.4534 288.609 25.0667 289.689 24.64 290.596C24.2134 291.502 23.7067 292.222 23.12 292.756C22.6667 293.182 22.1334 293.502 21.52 293.716C20.9334 293.929 20.2934 294.036 19.6 294.036C18.24 294.036 17.0267 293.649 15.96 292.876C14.92 292.129 14.0934 291.089 13.48 289.756C12.8934 288.422 12.6 286.902 12.6 285.196Z" fill="#31373F"/>
<path d="M13 16.3449L41 21.1449L41 26.7849L13 21.9849L13 16.3449ZM19 3.54492L24.16 3.54492L24.16 27.6249L19 27.6249L19 3.54492ZM13 5.86492L41 10.6649L41 16.3049L13 11.5049L13 5.86492ZM30.2 5.06492L35.36 5.06492L35.36 29.1049L30.2 29.1049L30.2 5.06492Z" fill="#AB9DFF"/>
</svg>
