<svg width="222" height="213" viewBox="0 0 222 213" fill="none" xmlns="http://www.w3.org/2000/svg">
<path d="M87.3083 10.7995C100.029 -3.42503 122.293 -3.42502 135.014 10.7995L158.761 37.3536C161.799 40.7507 165.528 43.4597 169.698 45.2993L202.291 59.6787C219.75 67.3814 226.63 88.5557 217.032 105.05L199.116 135.84C196.824 139.779 195.4 144.163 194.939 148.697L191.335 184.138C189.405 203.123 171.393 216.209 152.74 212.179L117.92 204.654C113.466 203.692 108.857 203.692 104.402 204.654L69.5821 212.179C50.9297 216.209 32.9177 203.123 30.9872 184.138L27.3834 148.697C26.9223 144.163 25.4981 139.779 23.2061 135.84L5.28992 105.05C-4.3074 88.5557 2.57254 67.3814 20.0318 59.6787L52.6247 45.2993C56.7943 43.4597 60.5229 40.7507 63.561 37.3536L87.3083 10.7995Z" fill="url(#paint0_linear_815_2427)"/>
<defs>
<linearGradient id="paint0_linear_815_2427" x1="0.938965" y1="106.52" x2="221.383" y2="106.52" gradientUnits="userSpaceOnUse">
<stop stop-color="#C6D4FD"/>
<stop offset="1" stop-color="#E1E9FA"/>
</linearGradient>
</defs>
</svg>
