<svg width="219" height="220" viewBox="0 0 219 220" fill="none" xmlns="http://www.w3.org/2000/svg">
<path d="M86.2222 13.1158C97.6843 -3.13006 121.777 -3.13006 133.239 13.1158V13.1158C139.642 22.1911 150.697 26.7703 161.642 24.8807V24.8807C181.234 21.4981 198.27 38.534 194.888 58.1265V58.1265C192.998 69.0714 197.577 80.1265 206.653 86.5295V86.5295C222.898 97.9916 222.898 122.084 206.653 133.546V133.546C197.577 139.949 192.998 151.004 194.888 161.949V161.949C198.27 181.542 181.234 198.578 161.642 195.195V195.195C150.697 193.305 139.642 197.885 133.239 206.96V206.96C121.777 223.206 97.6843 223.206 86.2222 206.96V206.96C79.8191 197.885 68.764 193.305 57.8191 195.195V195.195C38.2266 198.578 21.1907 181.542 24.5733 161.949V161.949C26.4629 151.004 21.8838 139.949 12.8084 133.546V133.546C-3.43743 122.084 -3.43743 97.9916 12.8084 86.5295V86.5295C21.8838 80.1265 26.4629 69.0714 24.5733 58.1265V58.1265C21.1907 38.534 38.2266 21.4981 57.8191 24.8807V24.8807C68.764 26.7703 79.8191 22.1911 86.2222 13.1158V13.1158Z" fill="url(#paint0_linear_815_2434)"/>
<defs>
<linearGradient id="paint0_linear_815_2434" x1="0.623923" y1="219.144" x2="218.837" y2="0.931205" gradientUnits="userSpaceOnUse">
<stop stop-color="#C6D4FD"/>
<stop offset="0.328125" stop-color="#E1E9FA"/>
<stop offset="0.677083" stop-color="#9AFDCE"/>
<stop offset="1" stop-color="#B7FE9B"/>
</linearGradient>
</defs>
</svg>
