<svg width="221" height="214" viewBox="0 0 221 214" fill="none" xmlns="http://www.w3.org/2000/svg">
<path d="M86.7629 11.0932C99.4838 -3.13132 121.748 -3.13132 134.469 11.0932L158.216 37.6473C161.254 41.0444 164.983 43.7534 169.152 45.593L201.745 59.9724C219.204 67.6751 226.084 88.8494 216.487 105.343L198.571 136.134C196.279 140.073 194.855 144.456 194.394 148.99L190.79 184.432C188.859 203.417 170.847 216.503 152.195 212.472L117.375 204.948C112.92 203.985 108.311 203.985 103.857 204.948L69.0367 212.472C50.3842 216.503 32.3723 203.417 30.4418 184.432L26.838 148.99C26.3769 144.456 24.9527 140.073 22.6607 136.134L4.74451 105.343C-4.85281 88.8494 2.02713 67.6751 19.4864 59.9724L52.0793 45.593C56.2489 43.7534 59.9775 41.0444 63.0156 37.6473L86.7629 11.0932Z" fill="url(#paint0_linear_815_2432)"/>
<defs>
<linearGradient id="paint0_linear_815_2432" x1="0.393555" y1="106.814" x2="220.838" y2="106.814" gradientUnits="userSpaceOnUse">
<stop stop-color="#B7FE9B"/>
<stop offset="1" stop-color="#E1E9FA"/>
</linearGradient>
</defs>
</svg>
