<svg width="204" height="226" viewBox="0 0 204 226" fill="none" xmlns="http://www.w3.org/2000/svg">
<path d="M77.2272 12.4644C90.0209 -2.89441 113.608 -2.8944 126.402 12.4645L138.689 27.2151C143.555 33.0565 150.341 36.9747 157.833 38.2679L176.751 41.5335C196.449 44.9338 208.242 65.3608 201.338 84.1199L194.707 102.136C192.081 109.271 192.081 117.107 194.707 124.242L201.338 142.258C208.242 161.017 196.449 181.444 176.751 184.844L157.833 188.11C150.341 189.403 143.555 193.322 138.689 199.163L126.402 213.914C113.608 229.272 90.0209 229.272 77.2272 213.914L64.9401 199.163C60.0743 193.322 53.2878 189.403 45.7961 188.11L26.8781 184.844C7.18006 181.444 -4.6135 161.017 2.29081 142.258L8.92171 124.242C11.5476 117.107 11.5476 109.271 8.92171 102.136L2.2908 84.1199C-4.6135 65.3608 7.18007 44.9338 26.8781 41.5335L45.7961 38.2679C53.2878 36.9747 60.0743 33.0565 64.9401 27.2151L77.2272 12.4644Z" fill="url(#paint0_linear_815_2435)"/>
<defs>
<linearGradient id="paint0_linear_815_2435" x1="0.304685" y1="113.189" x2="171.467" y2="39.346" gradientUnits="userSpaceOnUse">
<stop stop-color="#B7FE9B"/>
<stop offset="1" stop-color="#9AFDCE"/>
</linearGradient>
</defs>
</svg>
