<svg xmlns="http://www.w3.org/2000/svg" width="120" height="120" fill="none" xmlns:v="https://vecta.io/nano"><rect width="120" height="120" rx="32" fill="#faf8f6"/><g clip-path="url(#A)"><path fill-rule="evenodd" d="M93.125 65.753L84.525 60l8.6-5.752v11.505zM63.438 90.138V74.105l14.905-9.968 12.03 8.045-26.935 17.955zM60 68.133L47.843 60 60 51.868 72.16 60 60 68.133zm-3.437 22.005L29.628 72.183l12.032-8.045 14.903 9.968v16.032zm-29.687-35.89L35.478 60l-8.602 5.752V54.248zm29.688-24.385v16.033l-14.903 9.97-12.032-8.047 26.935-17.955zm6.875 0l26.935 17.955-12.03 8.047-14.905-9.97V29.863zM99.97 47.365l-.028-.15-.06-.288c-.015-.058-.037-.113-.055-.168l-.088-.25a1.71 1.71 0 0 0-.078-.167c-.035-.08-.072-.155-.117-.227l-.097-.16-.145-.21-.117-.148-.172-.187-.135-.132-.195-.165-.155-.117c-.02-.012-.038-.03-.058-.042L61.908 20.578a3.44 3.44 0 0 0-3.815 0l-36.56 24.375c-.02.013-.037.03-.057.042-.055.038-.105.078-.155.117l-.195.165c-.047.04-.093.087-.137.132l-.17.188-.12.148-.143.21-.1.16c-.042.072-.08.148-.117.227l-.075.167a2.98 2.98 0 0 0-.09.25l-.052.168c-.025.093-.043.19-.06.288l-.027.15a3.28 3.28 0 0 0-.032.447v24.375c0 .15.012.3.032.45.005.047.018.097.027.147l.06.288.052.167.09.253.075.165.117.23.1.157.143.207a1.75 1.75 0 0 0 .12.15l.17.185.137.135.195.165.155.117c.02.013.037.03.057.043l36.56 24.375c.578.385 1.242.578 1.907.578s1.33-.192 1.907-.578L98.47 75.048c.02-.013.037-.03.058-.043l.155-.117.195-.165c.047-.042.09-.087.135-.135a3.02 3.02 0 0 0 .172-.185l.117-.15a2.37 2.37 0 0 0 .145-.207l.097-.157a2.5 2.5 0 0 0 .117-.23l.078-.165.088-.253.055-.167c.025-.095.043-.19.06-.288l.028-.147a3.4 3.4 0 0 0 .03-.45V47.813a3.28 3.28 0 0 0-.03-.447z" fill="#373737"/></g><defs><clipPath id="A"><path fill="#fff" transform="translate(20 20)" d="M0 0h80v80H0z"/></clipPath></defs></svg>