<svg xmlns="http://www.w3.org/2000/svg" width="120" height="120" fill="none" xmlns:v="https://vecta.io/nano"><rect width="120" height="120" rx="32" fill="#faf8f6"/><path fill-rule="evenodd" d="M93.984 54.081c-.457-2.241-1.144-4.448-2.033-6.556-.873-2.07-1.957-4.063-3.216-5.925-1.249-1.847-2.681-3.583-4.259-5.159a34.9 34.9 0 0 0-5.159-4.259 34.73 34.73 0 0 0-5.925-3.219 34.71 34.71 0 0 0-6.556-2.031c-2.296-.471-4.661-.711-7.023-.711a35.04 35.04 0 0 0-7.026.711c-2.241.454-4.448 1.144-6.555 2.031-2.067.876-4.063 1.957-5.928 3.219-1.847 1.246-3.583 2.678-5.159 4.259A35.06 35.06 0 0 0 30.89 41.6a34.61 34.61 0 0 0-3.216 5.925 34.65 34.65 0 0 0-2.036 6.556 35.07 35.07 0 0 0-.708 7.022c0 2.368.238 4.733.708 7.027.459 2.241 1.144 4.448 2.035 6.555.873 2.067 1.957 4.065 3.216 5.928 1.247 1.847 2.678 3.58 4.256 5.159a35.24 35.24 0 0 0 5.159 4.256 34.85 34.85 0 0 0 5.928 3.216 34.67 34.67 0 0 0 6.555 2.033 34.84 34.84 0 0 0 7.026.711 34.81 34.81 0 0 0 7.023-.711 34.79 34.79 0 0 0 6.556-2.033 34.82 34.82 0 0 0 5.925-3.216 35.07 35.07 0 0 0 5.159-4.256c1.576-1.579 3.01-3.313 4.259-5.159 1.26-1.863 2.342-3.861 3.216-5.928.89-2.105 1.576-4.314 2.033-6.555.471-2.296.708-4.661.708-7.027s-.236-4.729-.707-7.022zm-4.394 6.727c-.43-.093-10.511-2.264-20.748-.977l-.642-1.538c-.619-1.458-1.287-2.903-1.981-4.321 11.766-4.8 16.542-11.708 16.598-11.79a29.64 29.64 0 0 1 6.773 18.625zM79.487 38.747c-.075.116-4.317 6.573-15.56 10.788-5.093-9.357-10.688-16.789-11.135-17.379a29.74 29.74 0 0 1 7.02-.841c7.544 0 14.426 2.811 19.675 7.432zm-26.811-6.567c-.006.006-.038.014-.093.025.03-.008.063-.014.093-.025zM47.1 34.161c.397.532 5.907 8.001 11.063 17.165-14.304 3.8-26.718 3.652-27.505 3.638 1.936-9.227 8.135-16.878 16.442-20.802zM30.022 61.103c0-.317.014-.628.025-.941.525.011 15.246.346 30.583-4.245.854 1.671 1.671 3.368 2.417 5.064-.394.11-.786.229-1.174.356C45.796 66.533 37.642 81 37.642 81c-4.731-5.265-7.62-12.243-7.62-19.897zm29.79 29.793a29.66 29.66 0 0 1-18.975-6.827 19.38 19.38 0 0 0 .667.521s5.711-12.454 23.377-18.61c.066-.025.133-.044.199-.063 4.192 10.892 5.922 20.015 6.364 22.619-3.576 1.521-7.506 2.361-11.632 2.361zm16.647-5.081c-.303-1.799-1.891-10.542-5.798-21.279 9.615-1.538 17.951 1.099 18.564 1.301-1.326 8.3-6.078 15.46-12.766 19.978z" fill="#ea4c89"/></svg>