<svg width="1322" height="861" viewBox="0 0 1322 861" fill="none" xmlns="http://www.w3.org/2000/svg">
<path d="M627.971 619.23C645.881 612.643 665.539 623.096 670.093 641.627L678.594 676.222C679.682 680.648 681.702 684.79 684.52 688.372L706.547 716.37C718.346 731.367 714.48 753.293 698.262 763.351L667.988 782.126C664.115 784.528 660.8 787.729 658.264 791.516L638.443 821.117C627.826 836.973 605.778 840.072 591.201 827.756L563.99 804.765C560.509 801.824 556.439 799.66 552.054 798.419L517.777 788.715C499.416 783.517 489.656 763.506 496.865 745.837L510.322 712.853C512.043 708.633 512.843 704.094 512.669 699.54L511.306 663.942C510.575 644.873 526.591 629.408 545.622 630.803L581.151 633.409C585.696 633.742 590.26 633.101 594.537 631.527L627.971 619.23Z" fill="url(#paint0_linear_815_2436)"/>
<path d="M924.209 180.142C948.583 183.71 959.954 212.326 944.676 231.65L873.288 321.948C858.011 341.273 827.544 336.812 818.447 313.92L775.941 206.946C766.844 184.054 785.941 159.899 810.314 163.467L924.209 180.142Z" fill="url(#paint1_linear_815_2436)"/>
<path d="M196.447 322.928C201.661 333.102 201.05 345.285 194.846 354.888L159.351 409.82C153.147 419.423 142.291 424.986 130.872 424.414L65.5521 421.141C54.1339 420.568 43.8883 413.948 38.6747 403.774L8.8489 345.568C3.63529 335.394 4.24573 323.211 10.4503 313.608L45.9449 258.676C52.1495 249.073 63.0055 243.51 74.4237 244.082L139.744 247.355C151.162 247.928 161.408 254.548 166.622 264.722L196.447 322.928Z" fill="url(#paint2_linear_815_2436)"/>
<path d="M1242.73 493.394C1250.31 505.003 1249.55 520.171 1240.85 530.965L1194.52 588.444C1185.82 599.238 1171.16 603.202 1158.21 598.263L1089.23 571.966C1076.27 567.027 1067.97 554.309 1068.66 540.463L1072.36 466.732C1073.05 452.886 1082.58 441.061 1095.97 437.442L1167.23 418.172C1180.61 414.553 1194.8 419.963 1202.38 431.572L1242.73 493.394Z" fill="url(#paint3_linear_815_2436)"/>
<path d="M317.724 71.2644C328.387 53.1293 353.349 50.0412 368.11 65.0311L371.938 68.9186C379.064 76.1552 389.203 79.5793 399.257 78.1453L404.658 77.375C425.485 74.4046 443.463 91.9951 440.947 112.882L440.294 118.299C439.08 128.382 442.724 138.443 450.114 145.41L454.084 149.153C469.391 163.584 466.847 188.607 448.949 199.662L444.307 202.53C435.666 207.867 430.072 216.989 429.232 227.11L428.782 232.548C427.043 253.513 405.893 267.126 386.09 260.025L380.954 258.184C371.394 254.756 360.774 256.07 352.337 261.724L347.805 264.762C330.33 276.474 306.5 268.426 299.705 248.516L297.942 243.353C294.662 233.741 287.013 226.257 277.332 223.186L272.131 221.537C252.078 215.177 243.513 191.528 254.842 173.801L257.781 169.204C263.25 160.646 264.332 150 260.697 140.517L258.744 135.422C251.214 115.779 264.363 94.3375 285.286 92.1429L290.712 91.5737C300.813 90.5142 309.811 84.7227 314.959 75.9676L317.724 71.2644Z" fill="url(#paint4_linear_815_2436)"/>
<path d="M1105.38 224.401C1086.48 221.769 1074.06 203.285 1078.78 184.795L1087.59 150.277C1088.72 145.861 1088.89 141.256 1088.09 136.768L1081.86 101.694C1078.52 82.9048 1092.27 65.3896 1111.31 64.163L1146.86 61.8732C1151.41 61.5803 1155.84 60.3192 1159.86 58.1745L1191.29 41.4102C1208.13 32.4298 1229.04 40.0887 1236.09 57.8211L1249.25 90.9237C1250.94 95.1586 1253.51 98.9849 1256.79 102.147L1282.45 126.86C1296.19 140.099 1295.37 162.348 1280.68 174.534L1253.26 197.282C1249.76 200.192 1246.91 203.818 1244.92 207.917L1229.34 239.955C1221 257.117 1199.59 263.209 1183.46 253.008L1153.35 233.964C1149.5 231.528 1145.17 229.943 1140.66 229.314L1105.38 224.401Z" fill="url(#paint5_linear_815_2436)"/>
<path d="M99.5937 670.092C81.2599 667.16 69.2621 649.291 73.4875 631.212L86.6406 574.932L95.7691 517.86C98.7015 499.526 116.57 487.529 134.65 491.754L190.93 504.907L248.001 514.036C266.335 516.968 278.333 534.837 274.107 552.916L260.954 609.197L251.826 666.268C248.893 684.602 231.025 696.599 212.945 692.374L156.665 679.221L99.5937 670.092Z" fill="url(#paint6_linear_815_2436)"/>
<path d="M569.672 272.667C579.833 255.578 603.852 253.7 616.546 269.003V269.003C623.637 277.552 635.015 281.256 645.779 278.519V278.519C665.049 273.619 683.36 289.276 681.515 309.072V309.072C680.484 320.131 685.911 330.796 695.458 336.472V336.472C712.548 346.633 714.425 370.652 699.122 383.346V383.346C690.573 390.436 686.87 401.815 689.607 412.579V412.579C694.506 431.848 678.85 450.16 659.053 448.315V448.315C647.994 447.284 637.33 452.711 631.653 462.258V462.258C621.492 479.347 597.473 481.225 584.78 465.922V465.922C577.689 457.373 566.311 453.67 555.546 456.407V456.407C536.277 461.306 517.965 445.649 519.81 425.853V425.853C520.841 414.794 515.414 404.129 505.868 398.453V398.453C488.778 388.292 486.9 364.273 502.203 351.58V351.58C510.752 344.489 514.456 333.11 511.719 322.346V322.346C506.82 303.077 522.476 284.765 542.272 286.61V286.61C553.331 287.641 563.996 282.214 569.672 272.667V272.667Z" fill="url(#paint7_linear_815_2436)"/>
<path d="M863.431 506.521C871.513 488.238 894.192 481.758 910.713 493.01L926.58 503.817C932.864 508.097 940.466 510 948.024 509.185L967.112 507.127C986.986 504.984 1003.94 521.385 1002.45 541.319L1001.03 560.464C1000.46 568.045 1002.62 575.58 1007.1 581.718L1018.43 597.22C1030.22 613.36 1024.49 636.241 1006.49 644.922L989.194 653.26C982.346 656.562 976.897 662.194 973.824 669.147L966.062 686.706C957.981 704.989 935.302 711.47 918.78 700.217L902.913 689.41C896.63 685.131 889.028 683.228 881.469 684.043L862.382 686.101C842.508 688.243 825.556 671.843 827.04 651.909L828.466 632.764C829.03 625.182 826.877 617.648 822.392 611.509L811.066 596.008C799.274 579.868 805.001 556.987 823.007 548.305L840.299 539.967C847.147 536.666 852.596 531.033 855.67 524.08L863.431 506.521Z" fill="url(#paint8_linear_815_2436)"/>
<defs>
<linearGradient id="paint0_linear_815_2436" x1="506.773" y1="663.198" x2="701.414" y2="766.692" gradientUnits="userSpaceOnUse">
<stop stop-color="#C6D4FD"/>
<stop offset="1" stop-color="#E1E9FA"/>
</linearGradient>
<linearGradient id="paint1_linear_815_2436" x1="840.165" y1="146.941" x2="906.341" y2="313.479" gradientUnits="userSpaceOnUse">
<stop stop-color="#C6D4FD"/>
<stop offset="1" stop-color="#E1E9FA"/>
</linearGradient>
<linearGradient id="paint2_linear_815_2436" x1="107.084" y1="245.719" x2="98.2124" y2="422.777" gradientUnits="userSpaceOnUse">
<stop stop-color="#C6D4FD"/>
<stop offset="1" stop-color="#E1E9FA"/>
</linearGradient>
<linearGradient id="paint3_linear_815_2436" x1="1163.79" y1="416.429" x2="1154.61" y2="599.654" gradientUnits="userSpaceOnUse">
<stop stop-color="#C6D4FD"/>
<stop offset="1" stop-color="#E1E9FA"/>
</linearGradient>
<linearGradient id="paint4_linear_815_2436" x1="247.446" y1="174.002" x2="410.104" y2="68.5597" gradientUnits="userSpaceOnUse">
<stop stop-color="#BBC0FC"/>
<stop offset="1" stop-color="#F4EFEB"/>
</linearGradient>
<linearGradient id="paint5_linear_815_2436" x1="1232.99" y1="242.747" x2="1110.11" y2="59.7309" gradientUnits="userSpaceOnUse">
<stop stop-color="#B7FE9B"/>
<stop offset="1" stop-color="#E1E9FA"/>
</linearGradient>
<linearGradient id="paint6_linear_815_2436" x1="238.066" y1="687.781" x2="109.529" y2="496.348" gradientUnits="userSpaceOnUse">
<stop stop-color="#B7FE9B"/>
<stop offset="1" stop-color="#E1E9FA"/>
</linearGradient>
<linearGradient id="paint7_linear_815_2436" x1="500.391" y1="484.74" x2="700.934" y2="250.184" gradientUnits="userSpaceOnUse">
<stop stop-color="#C6D4FD"/>
<stop offset="0.328125" stop-color="#E1E9FA"/>
<stop offset="0.677083" stop-color="#9AFDCE"/>
<stop offset="1" stop-color="#B7FE9B"/>
</linearGradient>
<linearGradient id="paint8_linear_815_2436" x1="817.144" y1="624.504" x2="961.43" y2="506.475" gradientUnits="userSpaceOnUse">
<stop stop-color="#B7FE9B"/>
<stop offset="1" stop-color="#9AFDCE"/>
</linearGradient>
</defs>
</svg>
