<svg xmlns="http://www.w3.org/2000/svg" width="120" height="120" fill="none" xmlns:v="https://vecta.io/nano"><rect width="120" height="120" rx="32" fill="#faf8f6"/><g fill="#0a66c2"><path d="M62.433 58.242v-.109l-.071.109h.071z"/><path d="M89.518 26.585H30.082c-2.845 0-5.152 2.252-5.152 5.028v60.132c0 2.774 2.307 5.026 5.152 5.026h59.436c2.849 0 5.156-2.254 5.156-5.026V31.613c0-2.777-2.309-5.028-5.156-5.028zM46.07 85.34H35.536V53.648H46.07V85.34zm-5.266-36.021h-.071c-3.533 0-5.819-2.434-5.819-5.475 0-3.109 2.357-5.475 5.959-5.475s5.821 2.366 5.891 5.475c0 3.041-2.289 5.475-5.96 5.475zM84.056 85.34H73.522V68.381c0-4.259-1.524-7.166-5.336-7.166-2.91 0-4.642 1.96-5.406 3.854-.278.676-.346 1.621-.346 2.57v17.7H51.901V53.646h10.534v4.486c1.4-2.159 3.903-5.234 9.495-5.234 6.93 0 12.127 4.531 12.127 14.266V85.34h-.001z"/></g></svg>