<svg xmlns="http://www.w3.org/2000/svg" xmlns:xlink="http://www.w3.org/1999/xlink" width="720" height="560" fill="none" xmlns:v="https://vecta.io/nano"><mask id="A" maskUnits="userSpaceOnUse" x="0" y="0" width="720" height="560" mask-type="alpha"><path d="M0 0H720V560H0V0Z" fill="#fff"/></mask><g mask="url(#A)"><path d="M207.204 32.903c20.545-13.591 48.098.156 49.596 24.744l5.896 96.815c1.498 24.588-24.184 41.577-46.226 30.58l-86.793-43.302c-22.043-10.997-23.915-41.732-3.37-55.323l80.897-53.514z" fill="url(#B)"/><path d="M182.688 93.25l7.5-15.033 3.65 1.821-7.5 15.033-3.65-1.822zm-9.321-4.65l7.5-15.033 3.651 1.821-7.5 15.033-3.651-1.822zm4.343-5.156l1.65-3.254 9.814 4.897-1.629 3.264-9.835-4.907zm15.657 15.135l5.893-11.812-4.467-2.229 1.607-3.221 12.693 6.332-1.608 3.221-4.574-2.282-5.893 11.812-3.651-1.822zm10.809 5.392l7.5-15.033 3.264 1.629 1.03 11.645-2.33-1.189 9.976-6.127 3.135 1.564-7.5 15.033-3.543-1.768 2.336-4.681 1.821-3.437 1.876-2.899-.149 1.32-7.391 4.386-1.418-.707-.877-8.457.987-.956c-.321 1.038-.706 2.079-1.156 3.124l-1.682 3.64-2.336 4.682-3.543-1.768zm18.854 9.406l7.5-15.033 3.651 1.822-5.893 11.811 6.7 3.343-1.607 3.221-10.351-5.164zm-46.919 12.622c-1.131-.564-2.083-1.272-2.856-2.123-.752-.858-1.308-1.805-1.667-2.842-.351-1.052-.484-2.147-.4-3.284.107-1.145.446-2.29 1.017-3.436.557-1.117 1.272-2.047 2.144-2.792a8.37 8.37 0 0 1 2.875-1.624 8.52 8.52 0 0 1 3.327-.378c1.167.099 2.323.434 3.468 1.006.716.357 1.371.8 1.965 1.329a7.75 7.75 0 0 1 1.494 1.791c.422.658.724 1.345.903 2.06l-3.508 1.441c-.144-.465-.33-.897-.56-1.298a4.2 4.2 0 0 0-.816-1.105c-.337-.329-.734-.607-1.192-.836-.573-.286-1.171-.45-1.793-.492-.601-.05-1.192.023-1.771.216-.558.187-1.08.498-1.566.935s-.897.992-1.233 1.665c-.329.659-.521 1.314-.578 1.965-.049.637.023 1.245.216 1.824a4.25 4.25 0 0 0 .957 1.577c.458.479 1.024.887 1.697 1.222.458.229.927.382 1.406.461a5.45 5.45 0 0 0 1.396.052 5.65 5.65 0 0 0 1.33-.302l.368 3.671c-.558.222-1.216.341-1.974.356-.744.022-1.528-.056-2.351-.234a10.43 10.43 0 0 1-2.298-.825zm13.065 6.518c-.988-.493-1.826-1.054-2.513-1.683-.666-.636-1.196-1.33-1.59-2.081a9.81 9.81 0 0 1-.851-2.435l3.466-1.409c.237 1.316.632 2.317 1.183 3.004.566.693 1.236 1.233 2.009 1.619.386.193.762.317 1.127.374s.68.036.945-.065c.271-.115.479-.315.622-.601.107-.215.146-.437.117-.666a1.59 1.59 0 0 0-.204-.665 3.59 3.59 0 0 0-.495-.676c-.2-.243-.426-.472-.677-.686-.243-.229-.501-.447-.773-.654-.737-.601-1.346-1.191-1.826-1.77s-.831-1.165-1.053-1.759c-.201-.601-.277-1.202-.227-1.803.056-.615.242-1.238.556-1.868.336-.673.793-1.214 1.372-1.622.601-.416 1.259-.695 1.975-.839.736-.151 1.502-.162 2.296-.034a7.52 7.52 0 0 1 2.319.728c.988.493 1.779 1.021 2.374 1.586.616.558 1.078 1.155 1.386 1.791.323.644.527 1.327.614 2.05l-3.337 1.044c-.115-.522-.291-.995-.528-1.416a4.55 4.55 0 0 0-.838-1.116 4.21 4.21 0 0 0-1.106-.793c-.43-.215-.83-.343-1.202-.386-.351-.049-.662-.017-.934.098-.265.1-.465.286-.601.558-.121.244-.153.487-.096.73s.172.498.344.762c.18.25.402.504.667.762a11 11 0 0 0 .88.707 13.1 13.1 0 0 1 1.816 1.684c.515.579.909 1.169 1.182 1.77a4.11 4.11 0 0 1 .409 1.867c.008.63-.156 1.281-.492 1.954-.521 1.045-1.222 1.804-2.101 2.277-.859.466-1.828.671-2.908.614-1.06-.063-2.162-.381-3.307-.952zm13.611 6.791c-.988-.493-1.826-1.054-2.513-1.683-.666-.637-1.196-1.33-1.59-2.081-.388-.765-.671-1.577-.851-2.436l3.466-1.409c.237 1.317.632 2.318 1.183 3.004.566.694 1.236 1.234 2.009 1.619.386.193.762.318 1.127.375s.68.035.945-.065c.271-.115.479-.316.622-.602a1.14 1.14 0 0 0 .117-.665c-.014-.222-.083-.444-.204-.666a3.51 3.51 0 0 0-.495-.675 5.48 5.48 0 0 0-.677-.687c-.243-.229-.501-.447-.773-.654-.737-.6-1.346-1.19-1.826-1.769s-.831-1.166-1.053-1.759c-.201-.601-.277-1.202-.227-1.803.056-.616.242-1.239.556-1.869.336-.672.793-1.213 1.372-1.621.601-.416 1.259-.696 1.975-.839.737-.151 1.502-.163 2.296-.035a7.55 7.55 0 0 1 2.319.728c.988.493 1.78 1.022 2.374 1.587.616.557 1.078 1.154 1.386 1.791.323.644.527 1.327.614 2.049l-3.337 1.044c-.115-.522-.291-.994-.528-1.416-.222-.415-.501-.787-.838-1.115a4.21 4.21 0 0 0-1.106-.794c-.43-.214-.83-.342-1.202-.385-.351-.05-.662-.017-.934.097-.265.101-.465.287-.601.559-.121.243-.153.487-.096.73s.173.497.344.762c.18.25.402.504.667.761.272.243.565.479.88.708.709.55 1.314 1.111 1.816 1.683.515.579.909 1.169 1.182 1.77.287.608.423 1.231.409 1.867.008.63-.156 1.281-.492 1.954-.521 1.045-1.222 1.805-2.101 2.278-.859.465-1.828.67-2.908.614-1.06-.064-2.162-.381-3.307-.952z" fill="#fff"/><path d="M485.894 22.639c14.069-10.696 34.145-7.962 44.841 6.107l63.974 84.148c10.696 14.069 7.962 34.145-6.107 44.841l-84.148 63.974c-14.069 10.696-34.145 7.962-44.841-6.107l-63.975-84.148c-10.696-14.069-7.961-34.145 6.108-44.841l84.148-63.975z" fill="url(#C)"/><path d="M433.964 123.163c-.603-.082-1.164-.231-1.683-.448-.522-.2-.988-.457-1.397-.771a5.9 5.9 0 0 1-1.06-1.113 6.56 6.56 0 0 1-.732-1.384l2.634-2.087a6.73 6.73 0 0 0 .529.919c.178.235.352.436.523.605.187.17.379.301.576.393a2.5 2.5 0 0 0 .677.189 1.89 1.89 0 0 0 1.828-.793c.202-.295.332-.657.39-1.085l1.033-7.586-3.044-.414.479-3.52 9.56 1.302-.479 3.52-2.568-.35-1.098 8.061c-.111.809-.353 1.519-.726 2.13-.358.613-.816 1.124-1.372 1.533-.554.393-1.181.67-1.882.833-.682.15-1.412.171-2.188.066zm14.776 1.988c-1.062-.145-1.976-.552-2.74-1.221-.747-.683-1.299-1.549-1.657-2.599-.355-1.066-.447-2.225-.277-3.478.175-1.284.575-2.384 1.2-3.3s1.404-1.593 2.336-2.031c.934-.454 1.948-.607 3.042-.458.602.082 1.137.244 1.605.485.483.244.894.55 1.231.919.34.353.616.754.829 1.203.216.433.356.888.42 1.365l-.772-.202.408-2.997 3.781.515-1.719 12.628-3.853-.525.415-3.044.859.093a4.08 4.08 0 0 1-.79 1.176c-.339.358-.736.659-1.189.904s-.945.42-1.476.526a4.96 4.96 0 0 1-1.653.041zm1.484-3.068c.586.08 1.112.014 1.577-.197s.849-.546 1.154-1.005c.307-.475.507-1.054.6-1.735s.053-1.285-.117-1.809c-.169-.539-.449-.973-.841-1.301-.389-.344-.877-.555-1.463-.635-.571-.078-1.09-.003-1.557.224-.449.213-.826.557-1.133 1.032-.305.459-.504 1.03-.597 1.711s-.055 1.293.114 1.833c.171.523.444.948.82 1.274.391.328.872.53 1.443.608zm13.157 4.844l-3.559-13.346 4.209.573 1.853 9.868-.94-.031 4.533-9.095 4.161.566-7.26 11.873-2.997-.408zm14.806 2.235c-1.062-.145-1.976-.552-2.74-1.221-.747-.683-1.299-1.55-1.657-2.6-.355-1.065-.448-2.225-.277-3.477.175-1.284.575-2.384 1.2-3.3s1.404-1.593 2.336-2.032c.934-.454 1.948-.606 3.041-.457.603.082 1.138.243 1.606.485.483.243.894.549 1.231.918.339.353.616.754.829 1.203.216.433.356.888.42 1.365l-.772-.202.408-2.996 3.781.515-1.72 12.627-3.852-.524.415-3.044.859.093c-.187.426-.451.818-.79 1.176a4.73 4.73 0 0 1-1.189.904c-.453.245-.945.42-1.476.525s-1.082.119-1.653.042zm1.484-3.068c.586.08 1.112.014 1.577-.197a2.74 2.74 0 0 0 1.154-1.006c.307-.475.507-1.053.599-1.735s.054-1.284-.117-1.808c-.168-.54-.448-.973-.84-1.301-.389-.344-.877-.556-1.463-.636-.571-.077-1.09-.003-1.557.224-.449.214-.827.558-1.134 1.033-.304.459-.503 1.029-.596 1.711s-.055 1.292.114 1.832c.171.524.444.949.819 1.274.392.328.873.531 1.444.609zm15.449 5.398c-1.094-.149-2.068-.411-2.921-.785-.835-.389-1.56-.875-2.175-1.459-.613-.6-1.142-1.278-1.588-2.033l2.828-2.449c.648 1.17 1.344 1.992 2.087 2.464.759.475 1.566.771 2.422.887.428.059.824.056 1.188-.008s.655-.185.873-.365c.221-.196.353-.453.396-.77.032-.237-.002-.46-.103-.668-.085-.205-.221-.393-.408-.564a3.57 3.57 0 0 0-.685-.481 5.64 5.64 0 0 0-.862-.432c-.304-.138-.618-.262-.942-.371-.892-.331-1.658-.694-2.298-1.088s-1.162-.836-1.564-1.327c-.383-.504-.648-1.049-.794-1.634-.144-.601-.169-1.25-.074-1.948a4.28 4.28 0 0 1 .778-1.977 5.26 5.26 0 0 1 1.599-1.429 6.34 6.34 0 0 1 2.164-.771 7.55 7.55 0 0 1 2.43-.057c1.094.149 2.013.396 2.758.739.762.33 1.392.747 1.888 1.251a6.14 6.14 0 0 1 1.24 1.743l-2.824 2.062a5.16 5.16 0 0 0-.954-1.172c-.344-.321-.728-.584-1.153-.787a4.23 4.23 0 0 0-1.302-.395c-.476-.065-.897-.058-1.263.022-.348.065-.632.196-.853.392a1.09 1.09 0 0 0-.389.722c-.036.27.012.511.144.722s.323.416.571.611a5.75 5.75 0 0 0 .876.507 11.46 11.46 0 0 0 1.061.387c.848.293 1.602.629 2.26 1.01.675.382 1.238.814 1.689 1.296.467.483.797 1.028.988 1.636.21.594.264 1.263.163 2.008-.158 1.158-.577 2.102-1.258 2.832-.663.718-1.515 1.223-2.556 1.517-1.023.281-2.169.335-3.437.162zm14.691 2.001c-1.221-.166-2.276-.601-3.165-1.303a6.43 6.43 0 0 1-1.989-2.645c-.419-1.074-.543-2.238-.373-3.49s.6-2.332 1.289-3.24c.707-.921 1.583-1.601 2.628-2.04s2.177-.575 3.398-.409c1.125.153 2.129.492 3.01 1.016.898.525 1.575 1.183 2.033 1.972l-2.406 2.191c-.187-.284-.417-.557-.688-.82s-.58-.483-.927-.659a3.49 3.49 0 0 0-1.116-.346c-.602-.082-1.153-.012-1.651.211-.497.207-.905.539-1.226.996s-.524 1.002-.61 1.636c-.082.603-.03 1.167.157 1.693.202.528.514.966.935 1.314s.925.562 1.511.642a4.36 4.36 0 0 0 1.161.013 3.39 3.39 0 0 0 1.016-.346c.329-.165.641-.381.936-.648l1.705 2.776c-.632.608-1.458 1.045-2.479 1.309-1.006.267-2.055.326-3.149.177zm7.45.772l1.72-12.627 3.614.492-.393 4.137-.607-.882a5.17 5.17 0 0 1 1.177-1.705c.517-.478 1.091-.836 1.721-1.073a3.91 3.91 0 0 1 1.943-.22c.285.039.544.098.775.178.247.082.47.169.667.26l-1.62 4.067c-.159-.135-.385-.254-.677-.359a3.44 3.44 0 0 0-.888-.242c-.349-.047-.682-.028-1.001.058-.316.07-.592.202-.829.396a2.67 2.67 0 0 0-.606.716c-.152.286-.254.62-.306 1l-.861 6.326-3.829-.522zm11.036 1.503l1.72-12.627 3.805.518-1.72 12.628-3.805-.519zm3.962-14.865c-.713-.097-1.253-.34-1.62-.729-.349-.403-.48-.921-.394-1.556.078-.57.348-1.01.81-1.318s1.041-.416 1.739-.321c.713.098 1.244.347 1.593.75.351.387.485.89.4 1.508-.08.587-.35 1.034-.812 1.343-.446.31-1.018.418-1.716.323zm2.705 21.102l2.433-17.859 3.614.492-.242 2.85-.685-.312c.183-.508.517-.946 1.003-1.316s1.072-.637 1.757-.803c.702-.178 1.418-.218 2.147-.119 1.078.147 1.999.563 2.761 1.248.765.67 1.318 1.528 1.66 2.576.36 1.034.452 2.193.277 3.477-.173 1.268-.572 2.36-1.197 3.276-.61.919-1.381 1.605-2.315 2.059-.916.44-1.921.586-3.015.437a5.34 5.34 0 0 1-1.99-.683c-.613-.358-1.11-.797-1.492-1.317s-.606-1.06-.675-1.618l.925-.213-1.137 8.347-3.829-.522zm7.708-7.331c.571.078 1.089.011 1.553-.2.467-.227.853-.57 1.158-1.029s.503-1.03.596-1.711c.091-.666.051-1.261-.12-1.785-.169-.54-.449-.973-.84-1.301-.373-.342-.853-.552-1.44-.632s-1.112-.014-1.577.197-.85.554-1.157 1.029-.506 1.045-.597 1.711c-.093.682-.054 1.285.117 1.808s.451.958.84 1.302c.392.328.881.531 1.467.611zm9.727 4.377l2.154-15.814 3.805.518-2.154 15.814-3.805-.518zm-.969-9.603l.453-3.329 8.49 1.156-.453 3.33-8.49-1.157z" fill="#fff"/><path d="M537.668 385.631a32 32 0 0 1 12.507 35.478l-26.988 90.637a32 32 0 0 1-29.877 22.858l-94.54 2.342a32 32 0 0 1-30.972-21.351l-31.442-89.19c-4.609-13.075-.275-27.63 10.735-36.054l75.109-57.464a32 32 0 0 1 37.606-.932l77.862 53.676z" fill="url(#D)"/><path d="M400.986 463.818l-5.585-15.845 7.13-2.513c1.011-.356 2.001-.459 2.97-.309.984.145 1.846.52 2.585 1.124.733.59 1.271 1.368 1.611 2.333.351.996.434 1.977.248 2.941a5.36 5.36 0 0 1-1.27 2.535c-.655.74-1.496 1.29-2.522 1.652l-3.463 1.221 1.963 5.568-3.667 1.293zm8.782-3.096l-6.55-5.732 3.739-1.955 7.203 6.139-4.392 1.548zm-8.115-6.708l3.123-1.101c.393-.138.703-.341.931-.608a1.81 1.81 0 0 0 .416-.986c.054-.375.009-.767-.134-1.174s-.359-.73-.647-.968c-.293-.253-.642-.402-1.047-.445-.391-.049-.828.011-1.31.182l-2.784.981 1.452 4.119zm20.206 2.7c-1.328.468-2.576.611-3.743.429-1.172-.198-2.192-.661-3.06-1.39-.873-.744-1.52-1.712-1.94-2.904-.324-.921-.471-1.819-.441-2.695s.219-1.689.566-2.438c.341-.765.828-1.429 1.461-1.992.642-.582 1.409-1.031 2.299-1.345.845-.297 1.668-.418 2.469-.361.815.052 1.575.259 2.28.621a5.91 5.91 0 0 1 1.855 1.509c.532.644.938 1.409 1.216 2.295l.321.981-9.575 3.375-1.239-1.853 7.153-2.522-.233.566-.16-.453c-.163-.366-.401-.656-.713-.868a2.09 2.09 0 0 0-1.04-.422c-.39-.049-.797.001-1.219.15-.589.207-1.052.506-1.389.896-.328.37-.517.819-.569 1.346-.057.512.029 1.093.258 1.741.234.664.574 1.197 1.021 1.6a3.14 3.14 0 0 0 1.622.7c.639.081 1.328-.01 2.067-.27.513-.181.939-.416 1.279-.705.354-.295.701-.706 1.041-1.233l2.543 1.801a7.23 7.23 0 0 1-1.142 1.523 7.69 7.69 0 0 1-1.431 1.14c-.495.327-1.014.587-1.557.778zm11.964-4.243c-1.011.356-2.01.412-2.995.165-.977-.266-1.864-.785-2.661-1.556-.803-.785-1.415-1.774-1.835-2.966-.431-1.223-.577-2.384-.439-3.485s.521-2.058 1.15-2.873c.623-.831 1.455-1.43 2.497-1.797.573-.202 1.123-.302 1.649-.301.541-.004 1.046.08 1.515.255.463.159.892.389 1.287.691a4.34 4.34 0 0 1 .997 1.023l-.779.173-1.005-2.852 3.598-1.269 4.238 12.019-3.667 1.293-1.022-2.898.807-.31c.028.466-.027.935-.165 1.408a4.74 4.74 0 0 1-.645 1.347 5.19 5.19 0 0 1-1.074 1.141c-.424.337-.908.6-1.451.792zm-.081-3.407c.558-.197.996-.495 1.313-.895s.506-.874.567-1.422c.056-.563-.03-1.168-.259-1.817s-.538-1.167-.93-1.555c-.396-.404-.843-.661-1.341-.774-.503-.128-1.034-.094-1.593.103-.543.191-.97.495-1.282.91-.302.395-.481.874-.537 1.436-.061.548.022 1.146.251 1.795s.541 1.175.938 1.578c.391.388.828.641 1.311.759.498.113 1.018.074 1.562-.118zm15.847-2.125c-1.162.409-2.299.505-3.411.286a6.44 6.44 0 0 1-2.978-1.444c-.863-.765-1.505-1.743-1.925-2.935s-.531-2.349-.333-3.471c.208-1.142.677-2.147 1.406-3.015s1.674-1.506 2.836-1.916c1.072-.377 2.119-.535 3.142-.471 1.039.058 1.941.333 2.709.826l-1.139 3.048c-.297-.167-.625-.305-.987-.415a3.74 3.74 0 0 0-1.126-.163 3.46 3.46 0 0 0-1.15.202c-.574.202-1.031.516-1.373.942-.347.411-.559.892-.636 1.445s-.008 1.131.205 1.735c.202.573.506 1.052.912 1.434.422.378.899.625 1.433.742a2.94 2.94 0 0 0 1.637-.119 4.33 4.33 0 0 0 1.039-.519 3.39 3.39 0 0 0 .746-.772c.217-.297.396-.631.536-1.003l2.785 1.69c-.284.83-.82 1.596-1.608 2.297-.772.697-1.679 1.229-2.72 1.596zm7.976-3.067l-5.306-15.052 3.621-1.277 5.307 15.053-3.622 1.276zm-5.247-8.1l-1.118-3.169 8.081-2.848 1.117 3.168-8.08 2.849zm17.65 3.982c-.573.202-1.14.326-1.701.371a5.56 5.56 0 0 1-1.595-.048c-.513-.108-.997-.277-1.451-.507-.46-.245-.887-.544-1.283-.896l1.389-3.06a6.71 6.71 0 0 0 .891.576c.265.127.512.227.741.299.244.067.475.095.693.087a2.51 2.51 0 0 0 .688-.141c.362-.128.65-.323.863-.584a1.9 1.9 0 0 0 .401-.956c.044-.355-.005-.736-.149-1.144l-2.545-7.22-2.897 1.021-1.181-3.35 9.099-3.207 1.181 3.35-2.445.861 2.705 7.674c.271.769.38 1.511.327 2.226a5.03 5.03 0 0 1-.52 1.99c-.314.602-.745 1.136-1.293 1.601-.539.444-1.178.797-1.918 1.057zm16.389-5.777c-1.042.367-2.027.579-2.957.635-.921.036-1.788-.065-2.602-.304a9.83 9.83 0 0 1-2.341-1.083l1.398-3.471c1.111.745 2.105 1.159 2.981 1.24.892.075 1.746-.03 2.561-.318.407-.143.758-.326 1.053-.549s.498-.464.61-.724a1.21 1.21 0 0 0 0-.865c-.08-.227-.212-.409-.396-.548-.17-.144-.377-.249-.621-.315a3.63 3.63 0 0 0-.829-.115c-.314-.025-.635-.022-.964.009a9.69 9.69 0 0 0-1.008.101c-.944.112-1.791.139-2.541.081s-1.416-.213-1.997-.467c-.571-.273-1.056-.637-1.453-1.09-.403-.469-.721-1.035-.955-1.699a4.28 4.28 0 0 1-.211-2.115 5.26 5.26 0 0 1 .77-2.002c.404-.634.928-1.192 1.573-1.674.639-.497 1.351-.883 2.136-1.16 1.041-.367 1.971-.568 2.79-.602.829-.055 1.579.029 2.251.25.687.216 1.32.544 1.9.984l-1.571 3.124c-.455-.28-.917-.482-1.384-.606-.453-.129-.914-.187-1.385-.173-.455.007-.902.088-1.339.243-.453.159-.824.358-1.113.596-.28.217-.473.463-.58.738a1.09 1.09 0 0 0-.016.82c.09.257.243.449.458.577s.477.222.786.283c.305.045.642.062 1.011.05a11.14 11.14 0 0 0 1.121-.14c.888-.127 1.712-.171 2.472-.134.775.032 1.473.16 2.094.382.636.217 1.178.551 1.626 1.004.458.433.812 1.003 1.062 1.713.388 1.101.447 2.132.175 3.094-.262.94-.789 1.779-1.581 2.516-.783.717-1.777 1.288-2.984 1.714z" fill="#fff"/><path d="M549.587 204.674c8.286-17.191 29.68-23.354 45.841-13.208l24.955 15.667a32.02 32.02 0 0 0 12.709 4.608l29.197 3.965c18.909 2.568 31.382 21.01 26.726 39.516l-7.188 28.574c-1.112 4.42-1.267 9.026-.455 13.511l5.251 28.993c3.401 18.778-10.284 36.339-29.323 37.63l-29.397 1.993c-4.547.308-8.976 1.584-12.99 3.743l-25.952 13.953c-16.807 9.037-37.738 1.449-44.849-16.259l-10.98-27.343c-1.698-4.229-4.28-8.047-7.573-11.198l-21.29-20.369c-13.789-13.192-13.04-35.444 1.604-47.679l22.612-18.892a32 32 0 0 0 8.309-10.663l12.793-26.542z" fill="url(#E)"/><path d="M540.611 313.75l1.737-17.984 3.321-.957 10.993 14.316-3.967 1.143-5.403-7.31-.668-.931-.694-1.024-.702-1.047-.582-.981.685-.222.003 1.223-.027 1.207-.057 1.19-.073 1.22-.692 9.041-3.874 1.116zm2.154-3.967l.371-3.305 7.426-2.139 2.05 2.606-9.847 2.838zm15.519-1.125l-3.528-12.246 3.505-1.01.833 2.458-.658.489c.009-.602.165-1.188.467-1.758.313-.59.737-1.112 1.273-1.566a4.87 4.87 0 0 1 1.817-.973c.923-.266 1.755-.297 2.496-.094.736.187 1.375.611 1.915 1.271.535.645.958 1.506 1.268 2.582l2.166 7.518-3.713 1.07-2.08-7.218c-.141-.492-.328-.88-.559-1.163s-.516-.459-.852-.529c-.326-.089-.694-.066-1.104.069-.323.093-.608.233-.853.42-.25.172-.447.387-.589.644-.147.242-.246.504-.298.786-.037.277-.013.561.071.853l2.113 7.334-1.822.525-1.107.319-.761.219zm14.846-4.277l-3.528-12.246 3.69-1.063 3.528 12.245-3.69 1.064zm-2.381-15.199c-.691.199-1.284.195-1.776-.013-.482-.227-.812-.649-.989-1.264-.159-.553-.09-1.064.208-1.533s.785-.801 1.461-.996c.692-.199 1.279-.185 1.761.043.477.212.802.618.975 1.217.164.569.097 1.088-.201 1.557-.283.464-.762.794-1.439.989zm9.515 13.143l-3.528-12.246 3.505-1.01.754 2.181-.478.163c.069-.453.198-.873.386-1.26.204-.392.454-.739.75-1.041.307-.321.637-.591.99-.809a4.77 4.77 0 0 1 1.153-.507c.599-.173 1.172-.238 1.717-.195s1.062.218 1.55.527c.485.293.934.755 1.349 1.385l-.59.12.078-.422a4.11 4.11 0 0 1 .475-1.211c.235-.401.515-.756.842-1.067.322-.326.675-.603 1.06-.83a4.99 4.99 0 0 1 1.152-.507c.969-.279 1.831-.319 2.588-.121.752.183 1.398.605 1.938 1.265.555.656.988 1.522 1.298 2.598l2.153 7.472-3.713 1.07-2.067-7.172c-.141-.492-.328-.88-.559-1.163a1.49 1.49 0 0 0-.829-.535c-.31-.094-.665-.083-1.065.032-.323.093-.607.233-.853.42-.23.183-.419.396-.565.638-.132.238-.216.495-.253.772a2.16 2.16 0 0 0 .078.877l2.1 7.287-3.713 1.07-2.073-7.195c-.133-.462-.315-.834-.547-1.117a1.61 1.61 0 0 0-.835-.558c-.325-.09-.673-.081-1.042.025-.322.093-.607.233-.852.421a2.39 2.39 0 0 0-.566.637c-.131.238-.215.495-.252.772s-.013.562.071.854l2.106 7.31-3.713 1.07zm26.787-7.493c-1.03.297-2.03.294-3-.009-.959-.324-1.814-.893-2.565-1.709-.756-.831-1.309-1.854-1.659-3.069-.359-1.245-.437-2.413-.235-3.504s.64-2.024 1.316-2.801c.67-.793 1.536-1.342 2.597-1.648.584-.168 1.139-.237 1.664-.205a4.24 4.24 0 0 1 1.498.343 4.53 4.53 0 0 1 1.244.765 4.37 4.37 0 0 1 .936 1.08l-.788.127-.837-2.906 3.667-1.057 3.528 12.246-3.736 1.077-.851-2.952.824-.262c.001.465-.081.93-.247 1.395a4.71 4.71 0 0 1-.723 1.307c-.316.408-.695.766-1.138 1.077s-.942.546-1.495.705zm.118-3.405c.568-.164 1.023-.437 1.363-.818s.556-.843.649-1.386c.089-.558.038-1.168-.152-1.829s-.47-1.197-.838-1.607c-.372-.425-.804-.709-1.294-.851-.495-.157-1.027-.154-1.596.01-.553.16-.997.438-1.333.834-.324.377-.531.844-.62 1.402-.093.544-.045 1.146.146 1.807s.472 1.204.844 1.63a2.79 2.79 0 0 0 1.265.834c.49.142 1.012.133 1.566-.026zm11.519-.172l-4.419-15.336 3.69-1.063 4.418 15.336-3.689 1.063zm-4.766-8.393l-.93-3.228 8.233-2.372.93 3.228-8.233 2.372zm13.147 5.978l-3.528-12.246 3.69-1.063 3.528 12.246-3.69 1.063zm-2.381-15.199c-.692.199-1.284.195-1.777-.012-.482-.228-.811-.649-.988-1.264-.16-.554-.091-1.065.207-1.534s.785-.8 1.462-.995c.692-.199 1.279-.185 1.76.042.478.212.803.618.976 1.218.163.569.097 1.087-.201 1.556-.283.465-.762.794-1.439.989zm15.37 11.707c-1.276.367-2.494.418-3.652.153a6.64 6.64 0 0 1-3.004-1.583c-.843-.789-1.442-1.799-1.797-3.029s-.384-2.403-.09-3.52c.31-1.122.877-2.101 1.701-2.938.84-.841 1.898-1.446 3.174-1.814s2.486-.416 3.63-.146c1.158.265 2.16.793 3.003 1.582s1.442 1.799 1.797 3.029.384 2.404.09 3.521-.861 2.096-1.701 2.938c-.825.837-1.875 1.439-3.151 1.807zm-.917-3.183c.554-.159 1.006-.44 1.356-.84a3.01 3.01 0 0 0 .69-1.423c.108-.547.066-1.126-.126-1.737-.162-.619-.435-1.132-.818-1.538-.388-.421-.837-.708-1.347-.86s-1.042-.15-1.595.01-1.014.442-1.38.847c-.351.401-.578.882-.682 1.445-.109.548-.067 1.127.125 1.737.162.62.435 1.132.818 1.538s.83.685 1.34.838c.526.148 1.066.142 1.619-.017zm9.859.356l-3.528-12.245 3.505-1.01.833 2.457-.658.489a3.85 3.85 0 0 1 .467-1.758c.313-.589.738-1.111 1.273-1.565s1.141-.778 1.817-.973c.923-.266 1.755-.298 2.496-.095.736.187 1.375.611 1.915 1.272.535.645.958 1.505 1.268 2.581l2.166 7.519-3.713 1.069-2.08-7.218c-.141-.492-.328-.88-.559-1.163s-.516-.459-.852-.528c-.325-.09-.694-.067-1.104.068a2.55 2.55 0 0 0-.853.421 1.87 1.87 0 0 0-.589.644 2.31 2.31 0 0 0-.298.785c-.037.277-.013.562.071.854l2.113 7.333-1.822.525-1.107.319-.761.219z" fill="#fff"/><path d="M306.014 168.351c10.289-17.138 33.597-20.754 48.594-7.537l10.309 9.085c5.704 5.027 13.01 7.859 20.612 7.988l13.739.235c19.986.341 34.771 18.719 30.824 38.315l-2.714 13.47c-1.501 7.453-.3 15.197 3.388 21.845l6.667 12.015c9.698 17.48 1.174 39.473-17.77 45.852l-13.023 4.385c-7.205 2.426-13.31 7.338-17.223 13.856l-7.073 11.782c-10.289 17.138-33.597 20.753-48.594 7.537l-10.309-9.086a32 32 0 0 0-20.611-7.988l-13.74-.234c-19.986-.341-34.771-18.72-30.823-38.315l2.713-13.471a31.99 31.99 0 0 0-3.388-21.844l-6.666-12.016c-9.698-17.479-1.175-39.472 17.769-45.852l13.023-4.385a32 32 0 0 0 17.224-13.856l7.072-11.781z" fill="url(#F)"/><path d="M278.55 273.283l-.526-3.391 2.798-.435-1.522-9.818-2.799.434-.526-3.392 9.653-1.497.526 3.392-2.823.438 1.523 9.818 2.822-.438.527 3.392-9.653 1.497zm13.084-2.029l-1.953-12.594 3.605-.559.515 2.543-.714.402c.085-.596.314-1.157.686-1.685a5.3 5.3 0 0 1 1.459-1.392 4.88 4.88 0 0 1 1.926-.736c.949-.147 1.778-.073 2.488.222.707.279 1.286.78 1.739 1.503.449.707.76 1.614.932 2.721l1.199 7.732-3.818.592-1.152-7.423c-.078-.506-.214-.914-.408-1.224s-.453-.521-.778-.632c-.312-.13-.68-.154-1.104-.072-.332.052-.632.155-.899.31a1.88 1.88 0 0 0-.666.564 2.32 2.32 0 0 0-.395.741c-.071.271-.084.556-.037.856l1.17 7.542-1.874.291-1.138.176-.783.122zm16.098-2.497l-2.446-15.772 3.794-.588 2.447 15.771-3.795.589zm-3.668-8.927l-.515-3.321 8.467-1.313.515 3.32-8.467 1.314zm17.995 6.948c-1.391.215-2.644.126-3.757-.268-1.116-.409-2.034-1.052-2.752-1.929-.722-.892-1.179-1.962-1.373-3.211-.149-.965-.129-1.875.062-2.73s.526-1.62 1.005-2.293c.476-.689 1.077-1.252 1.802-1.688.74-.455 1.575-.755 2.508-.899.886-.138 1.717-.105 2.493.099.792.201 1.501.544 2.127 1.03s1.141 1.094 1.546 1.825.662 1.557.773 2.478l.134 1.024-10.032 1.556-.876-2.05 7.494-1.162-.333.513-.074-.475c-.093-.39-.273-.718-.541-.984a2.1 2.1 0 0 0-.944-.607c-.375-.12-.784-.145-1.226-.077-.617.096-1.127.305-1.531.626-.39.304-.659.71-.806 1.218-.151.493-.173 1.08-.068 1.759.108.696.345 1.283.711 1.76.378.46.867.789 1.464.988.614.196 1.308.234 2.082.114.538-.084 1-.236 1.387-.458.402-.224.819-.564 1.25-1.02l2.169 2.238c-.424.503-.892.932-1.404 1.287a7.64 7.64 0 0 1-1.615.857c-.548.231-1.106.39-1.675.479zm7.859-1.462l-1.953-12.594 3.605-.559.802 4.077-.832-.672c.084-.709.298-1.366.641-1.969.36-.607.807-1.113 1.343-1.52s1.136-.662 1.8-.765a4.03 4.03 0 0 1 .794-.05 6.4 6.4 0 0 1 .713.059l-.392 4.36c-.191-.084-.442-.134-.752-.151-.297-.035-.603-.028-.92.021a2.52 2.52 0 0 0-.943.341 1.94 1.94 0 0 0-.681.616 2.68 2.68 0 0 0-.377.859c-.064.318-.067.667-.008 1.046l.979 6.309-3.819.592zm14.942-2.099c-1.059.164-2.051.035-2.975-.389-.91-.441-1.686-1.114-2.329-2.019-.644-.92-1.063-2.004-1.257-3.253-.199-1.281-.129-2.45.209-3.506s.891-1.927 1.659-2.613c.766-.702 1.694-1.137 2.785-1.306.601-.093 1.16-.091 1.677.007.533.095 1.013.272 1.442.529.426.242.805.547 1.138.917.33.353.594.749.791 1.188l-.797.027-.463-2.989 3.77-.584 1.954 12.593-3.842.596-.471-3.036.85-.156a4.11 4.11 0 0 1-.422 1.353c-.223.439-.517.841-.881 1.205s-.787.673-1.266.925a4.99 4.99 0 0 1-1.572.511zm.547-3.364c.585-.09 1.07-.303 1.455-.638a2.73 2.73 0 0 0 .82-1.293c.159-.543.185-1.154.08-1.834s-.315-1.247-.628-1.7c-.316-.469-.708-.805-1.177-1.007-.471-.219-.999-.283-1.584-.192a2.66 2.66 0 0 0-1.428.659c-.369.332-.633.77-.792 1.313-.161.527-.189 1.13-.083 1.81s.316 1.254.631 1.723c.314.454.697.783 1.149.988.469.203.988.26 1.557.171zm15.968.827c-1.218.189-2.353.073-3.406-.346a6.45 6.45 0 0 1-2.661-1.968c-.707-.91-1.158-1.99-1.352-3.239s-.09-2.406.311-3.473c.415-1.084 1.061-1.985 1.937-2.704s1.923-1.173 3.14-1.362c1.123-.174 2.181-.136 3.175.115 1.01.248 1.847.685 2.511 1.311l-1.681 2.786a4.99 4.99 0 0 0-.893-.59 3.78 3.78 0 0 0-1.077-.367c-.383-.07-.773-.075-1.168-.013-.601.093-1.108.317-1.523.673a2.79 2.79 0 0 0-.89 1.304c-.177.529-.217 1.11-.119 1.743.094.601.305 1.126.634 1.577.345.449.768.78 1.271.993s1.046.275 1.631.184c.412-.063.784-.17 1.117-.319.33-.164.622-.371.875-.621.268-.252.506-.548.712-.888l2.426 2.174c-.432.763-1.1 1.418-2.003 1.962a7.95 7.95 0 0 1-2.967 1.068zm8.404-1.547l-2.446-15.771 3.795-.589 2.446 15.772-3.795.588zm-3.668-8.927l-.515-3.32 8.467-1.313.515 3.32-8.467 1.313zm12.288 7.591l-1.954-12.594 3.795-.588 1.953 12.593-3.794.589zm-.443-15.378c-.711.11-1.298.031-1.761-.237-.449-.287-.723-.746-.821-1.379-.088-.569.045-1.067.4-1.495s.88-.695 1.575-.803c.712-.11 1.292-.022 1.742.265.446.27.717.714.813 1.331.091.585-.041 1.091-.396 1.518-.339.425-.856.692-1.552.8zm13.768 13.554c-1.312.203-2.526.1-3.642-.31-1.1-.412-2.027-1.062-2.78-1.949-.737-.889-1.203-1.967-1.399-3.231s-.078-2.433.355-3.504c.449-1.074 1.135-1.974 2.058-2.7.94-.728 2.066-1.194 3.378-1.398s2.519-.099 3.619.313c1.116.41 2.042 1.06 2.779 1.949s1.204 1.967 1.4 3.232.078 2.433-.355 3.504-1.119 1.97-2.059 2.699c-.923.726-2.041 1.191-3.354 1.395zm-.507-3.273c.569-.089 1.053-.309 1.451-.663a3 3 0 0 0 .864-1.324c.177-.529.208-1.109.094-1.739-.082-.634-.288-1.177-.617-1.628-.331-.467-.74-.808-1.227-1.024a2.78 2.78 0 0 0-1.584-.192c-.569.089-1.061.311-1.475.666-.399.354-.686.803-.86 1.348-.177.529-.209 1.109-.095 1.739.083.635.288 1.178.617 1.629s.737.784 1.224 1c.503.213 1.039.276 1.608.188zm9.735 1.599l-1.953-12.594 3.605-.559.515 2.543-.714.402c.085-.596.314-1.158.685-1.685.385-.545.872-1.009 1.46-1.392s1.231-.628 1.926-.736c.949-.147 1.778-.073 2.488.222.707.279 1.286.78 1.739 1.503.449.707.76 1.614.932 2.721l1.199 7.732-3.818.592-1.152-7.423c-.078-.506-.214-.914-.408-1.224s-.453-.521-.778-.632c-.312-.13-.68-.154-1.104-.072-.332.051-.632.155-.9.309a1.89 1.89 0 0 0-.665.565 2.32 2.32 0 0 0-.395.741c-.071.271-.084.556-.037.856l1.17 7.542-1.874.291-1.138.176-.783.122z" fill="#fff"/><path d="M158.498 185.32c16.272-8.414 35.97 1.819 38.441 19.971a26.51 26.51 0 0 0 18.226 21.683c17.456 5.556 24.149 26.721 13.061 41.304a26.51 26.51 0 0 0-2.445 28.22c8.414 16.272-1.819 35.97-19.97 38.441a26.51 26.51 0 0 0-21.684 18.226c-5.556 17.456-26.721 24.149-41.303 13.061a26.51 26.51 0 0 0-28.22-2.445c-16.272 8.414-35.971-1.819-38.442-19.97a26.51 26.51 0 0 0-18.226-21.684c-17.456-5.556-24.149-26.721-13.061-41.303a26.51 26.51 0 0 0 2.445-28.221c-8.414-16.272 1.819-35.97 19.97-38.441a26.51 26.51 0 0 0 21.683-18.226c5.556-17.456 26.721-24.149 41.304-13.061a26.51 26.51 0 0 0 28.22 2.445z" fill="url(#G)"/><path d="M80.453 237.519l7.745-14.908 10.393 5.399-1.604 3.088-6.879-3.573-4.536 8.732 7.092 3.684-1.604 3.088-10.606-5.51zm4.879-5.227l1.527-2.939 7.731 4.016-1.527 2.939-7.731-4.016zm15.45 15.788l-.515-4.892-.3-2.13-1.297-8.436 4.089 2.125.518 4.677.351 2.292 1.2 8.466-4.046-2.102zm-8.093-4.204l7.855-3.979.691 3.145-4.521 2.925-4.025-2.091zm10.031-1.036l-.682-3.113 4.427-3.055 4.025 2.091-7.77 4.077zm1.579 13.018l8.309-15.995 3.238 1.682-1.189 2.601-.54-.524c.343-.417.806-.717 1.388-.902s1.224-.238 1.924-.163c.722.068 1.409.272 2.063.612.965.501 1.691 1.203 2.178 2.105.495.888.726 1.883.695 2.984-.01 1.095-.314 2.217-.911 3.367-.59 1.136-1.334 2.03-2.231 2.682-.884.659-1.841 1.045-2.874 1.157-1.01.106-2.006-.095-2.985-.604a5.34 5.34 0 0 1-1.644-1.314c-.456-.543-.777-1.124-.96-1.743s-.214-1.202-.091-1.751l.943.111-3.884 7.476-3.429-1.781zm9.728-4.305c.511.266 1.021.378 1.53.335.516-.056.995-.249 1.436-.579s.821-.799 1.138-1.41c.31-.596.473-1.169.489-1.72.023-.565-.095-1.068-.353-1.509-.236-.447-.617-.807-1.142-1.08s-1.043-.388-1.551-.346-.988.235-1.437.579-.828.814-1.138 1.41c-.317.611-.484 1.191-.5 1.742s.102 1.053.353 1.508c.258.441.649.797 1.175 1.07zm12.023 9.925c-1.25-.65-2.207-1.462-2.871-2.439-.658-.99-1.017-2.051-1.078-3.183-.054-1.146.21-2.28.793-3.401.45-.866 1.005-1.588 1.665-2.164a6.27 6.27 0 0 1 2.166-1.255c.792-.274 1.609-.372 2.453-.295.864.071 1.716.324 2.553.759.795.413 1.446.931 1.951 1.554a5.72 5.72 0 0 1 1.106 2.089c.217.762.273 1.557.167 2.386s-.387 1.647-.843 2.456l-.497.905-9.009-4.681.506-2.171 6.73 3.496-.572.217.221-.426a2.01 2.01 0 0 0 .146-1.114 2.1 2.1 0 0 0-.403-1.048c-.231-.318-.545-.58-.943-.787-.553-.288-1.088-.421-1.604-.401a2.32 2.32 0 0 0-1.371.505c-.412.309-.777.768-1.095 1.379-.324.624-.48 1.238-.468 1.839.034.594.233 1.148.597 1.662.378.521.915.963 1.611 1.324.483.251.945.401 1.388.451.458.057.995.03 1.612-.083l.424 3.088c-.639.154-1.27.223-1.892.207s-1.226-.105-1.81-.265a7.08 7.08 0 0 1-1.633-.604zm7.201 3.47l5.875-11.309 3.238 1.682-1.765 3.762-.274-1.035a5.16 5.16 0 0 1 1.682-1.208c.649-.277 1.309-.42 1.982-.431s1.308.138 1.904.448c.255.133.479.276.669.429a6.24 6.24 0 0 1 .541.47l-2.896 3.283c-.104-.181-.277-.37-.517-.566-.219-.204-.47-.38-.754-.527-.312-.163-.633-.257-.962-.284a1.96 1.96 0 0 0-.914.094c-.287.102-.558.259-.812.47-.239.218-.448.498-.625.838l-2.943 5.666-3.429-1.782zm9.884 5.135l5.875-11.309 3.408 1.77-5.875 11.309-3.408-1.77zm8.741-12.66c-.639-.332-1.066-.743-1.28-1.233-.193-.497-.142-1.029.153-1.597.266-.511.668-.834 1.207-.969s1.12-.04 1.745.285c.639.332 1.055.746 1.248 1.243.2.482.156 1-.132 1.554-.273.525-.679.855-1.217.99-.525.142-1.1.051-1.724-.273zm3.146 19.106c-1.249-.65-2.207-1.462-2.871-2.439-.658-.99-1.017-2.051-1.078-3.183-.054-1.146.211-2.28.793-3.401.45-.866 1.005-1.588 1.665-2.164a6.29 6.29 0 0 1 2.167-1.255c.791-.274 1.608-.372 2.452-.295.864.071 1.716.324 2.553.759.796.413 1.446.931 1.952 1.555a5.72 5.72 0 0 1 1.105 2.088c.217.762.273 1.558.167 2.386s-.387 1.647-.843 2.456l-.497.905-9.009-4.681.506-2.171 6.73 3.496-.572.217.221-.426a2.01 2.01 0 0 0 .146-1.114 2.1 2.1 0 0 0-.402-1.047c-.232-.319-.546-.581-.944-.788-.553-.288-1.088-.421-1.603-.4-.494.013-.952.182-1.372.504-.412.309-.777.768-1.094 1.379-.325.625-.481 1.238-.469 1.839.034.594.233 1.148.597 1.662.378.521.915.963 1.611 1.324.483.251.946.401 1.389.451.457.057.994.03 1.611-.083l.425 3.088c-.64.155-1.271.223-1.893.207s-1.226-.105-1.81-.264c-.577-.138-1.122-.34-1.633-.605zm7.201 3.47l5.875-11.309 3.238 1.682-1.089 2.355-.814-.098c.422-.43.938-.748 1.55-.953.633-.212 1.3-.298 2-.259a4.87 4.87 0 0 1 1.988.546c.852.443 1.477.993 1.875 1.65.405.643.576 1.39.513 2.241-.056.836-.342 1.751-.859 2.745l-3.606 6.943-3.429-1.781 3.463-6.666c.236-.454.367-.864.394-1.228a1.46 1.46 0 0 0-.253-.97c-.174-.289-.457-.526-.848-.711-.298-.155-.601-.249-.908-.283-.3-.047-.59-.027-.87.062-.273.074-.526.196-.757.364a2.07 2.07 0 0 0-.537.668l-3.518 6.772-1.682-.874-1.023-.531-.703-.365zm18.371 9.814c-1.093-.568-1.94-1.332-2.541-2.293s-.927-2.015-.981-3.161c-.033-1.152.243-2.29.825-3.411s1.352-1.994 2.306-2.616c.976-.629 2.029-.974 3.161-1.035s2.244.192 3.337.76c1.009.524 1.839 1.181 2.493 1.971.667.797 1.083 1.645 1.248 2.542l-3.003 1.252c-.081-.33-.205-.665-.371-1.004s-.384-.65-.651-.933a3.51 3.51 0 0 0-.934-.702c-.54-.28-1.082-.399-1.626-.358a2.79 2.79 0 0 0-1.49.525c-.455.322-.831.767-1.126 1.335-.28.539-.421 1.088-.423 1.646a3.13 3.13 0 0 0 .438 1.553c.279.469.681.841 1.207 1.114.369.191.732.326 1.088.403.364.063.722.068 1.073.016a4.17 4.17 0 0 0 1.1-.294l.67 3.188c-.8.36-1.725.492-2.776.397-1.036-.088-2.044-.386-3.024-.895zm12.032 6.251c-1.25-.65-2.207-1.462-2.872-2.439-.657-.99-1.016-2.051-1.078-3.183-.053-1.146.211-2.28.794-3.401.45-.866 1.005-1.588 1.665-2.164a6.27 6.27 0 0 1 2.166-1.255 5.8 5.8 0 0 1 2.452-.295c.865.071 1.716.324 2.554.759.795.413 1.445.931 1.951 1.555.52.63.888 1.326 1.106 2.088s.272 1.558.167 2.386-.387 1.647-.844 2.456l-.497.905-9.008-4.68.505-2.172 6.731 3.496-.573.217.222-.426a2.02 2.02 0 0 0 .146-1.114 2.1 2.1 0 0 0-.403-1.047c-.231-.319-.545-.581-.943-.788-.554-.288-1.088-.421-1.604-.4-.494.013-.951.182-1.371.504-.413.309-.778.768-1.095 1.379-.324.625-.481 1.238-.468 1.839.033.594.232 1.148.596 1.662.379.521.916.963 1.612 1.324.482.251.945.401 1.388.451.457.057.994.03 1.612-.083l.424 3.088a7.21 7.21 0 0 1-1.892.207 7.66 7.66 0 0 1-1.81-.264c-.578-.138-1.122-.34-1.633-.605zM88.548 277.785l7.745-14.908 6.241 3.242c1.093.568 1.998 1.272 2.715 2.113.724.827 1.24 1.744 1.546 2.751.321 1.014.422 2.067.305 3.16s-.459 2.187-1.027 3.28-1.269 2.009-2.104 2.748a7.67 7.67 0 0 1-2.761 1.567c-.993.314-2.039.419-3.14.316-1.093-.117-2.186-.459-3.28-1.027l-6.24-3.242zm4.904-.59l-.114-.978 3.003 1.56c.596.31 1.18.487 1.752.532a3.97 3.97 0 0 0 1.646-.254c.533-.192 1.028-.503 1.485-.932s.853-.964 1.185-1.603.542-1.269.63-1.89.058-1.205-.091-1.751a3.7 3.7 0 0 0-.75-1.472c-.358-.456-.835-.839-1.432-1.149l-3.066-1.593.908-.394-5.156 9.924zm16.463 11.961c-1.25-.649-2.207-1.462-2.872-2.438-.657-.991-1.016-2.052-1.077-3.184-.054-1.146.21-2.279.793-3.401.45-.866 1.005-1.588 1.665-2.164a6.27 6.27 0 0 1 2.166-1.255 5.8 5.8 0 0 1 2.452-.295c.865.071 1.716.324 2.554.759.795.413 1.446.931 1.951 1.555.52.63.888 1.327 1.106 2.089a5.89 5.89 0 0 1 .167 2.385c-.106.829-.387 1.647-.843 2.456l-.497.905-9.009-4.68.506-2.172 6.73 3.497-.573.216.222-.426c.156-.369.204-.741.146-1.114a2.1 2.1 0 0 0-.403-1.047c-.231-.319-.545-.581-.943-.788-.554-.287-1.088-.421-1.604-.4-.494.014-.951.182-1.371.504-.413.309-.778.768-1.095 1.379-.324.625-.48 1.238-.468 1.839.033.595.232 1.149.597 1.662.378.521.915.963 1.611 1.324.482.251.945.401 1.388.451.457.057.994.03 1.612-.082l.424 3.087a7.17 7.17 0 0 1-1.892.207 7.66 7.66 0 0 1-1.81-.264c-.578-.138-1.122-.34-1.633-.605zm10.903 5.664c-1.108-.575-1.995-1.262-2.663-2.059-.653-.791-1.073-1.613-1.26-2.467l2.995-.716c.211.669.539 1.253.982 1.754.45.486.924.859 1.421 1.117a2.32 2.32 0 0 0 .565.213 1.35 1.35 0 0 0 .472.028c.158-.026.291-.074.4-.144a.95.95 0 0 0 .284-.339c.148-.284.134-.57-.04-.859-.091-.138-.26-.333-.506-.588l-.974-.938c-.578-.517-1.057-1.018-1.436-1.503-.357-.493-.611-.976-.761-1.451-.129-.445-.18-.886-.152-1.322.036-.451.172-.903.408-1.357a3.2 3.2 0 0 1 1.103-1.239c.477-.293 1.003-.489 1.577-.588.588-.091 1.192-.074 1.813.05.642.117 1.254.327 1.836.629.625.325 1.185.706 1.679 1.143s.916.909 1.266 1.415c.364.514.646 1.048.845 1.602l-2.829 1.072c-.13-.374-.311-.738-.542-1.092a4.99 4.99 0 0 0-.736-.978 3.39 3.39 0 0 0-.848-.657 2.66 2.66 0 0 0-.609-.235c-.171-.053-.335-.066-.493-.04a.77.77 0 0 0-.399.144.8.8 0 0 0-.273.318.92.92 0 0 0-.104.46 1.19 1.19 0 0 0 .175.497c.097.159.273.376.526.652l1.079 1.047c.571.531 1.039 1.036 1.404 1.514s.608.947.73 1.407a2.65 2.65 0 0 1 .068 1.117c-.048.372-.169.742-.36 1.111a3.63 3.63 0 0 1-1.625 1.617c-.685.347-1.467.5-2.347.458-.872-.057-1.763-.321-2.671-.793zm7.035 3.384l5.875-11.309 3.407 1.77-5.875 11.309-3.407-1.77zm8.74-12.66c-.639-.332-1.065-.743-1.28-1.233-.192-.497-.141-1.029.154-1.597.265-.511.668-.834 1.206-.969s1.121-.04 1.746.285c.639.332 1.054.746 1.247 1.243.2.482.156 1.001-.131 1.554-.273.526-.679.856-1.218.99-.525.143-1.099.051-1.724-.273zm.499 23.681c-.922-.48-1.775-1.094-2.558-1.843-.769-.742-1.326-1.474-1.673-2.195l2.432-1.765c.195.353.433.693.714 1.02.288.348.609.668.962.959a6.54 6.54 0 0 0 1.148.759c.724.376 1.368.575 1.933.599a2.41 2.41 0 0 0 1.532-.449c.448-.308.842-.789 1.181-1.442l.985-1.895.605.449c-.343.417-.813.714-1.409.891-.583.184-1.221.249-1.914.196-.686-.068-1.349-.268-1.987-.6-1.023-.531-1.817-1.241-2.383-2.13-.544-.896-.833-1.884-.866-2.965-.012-1.088.27-2.186.845-3.294.59-1.135 1.337-2.018 2.242-2.648.911-.645 1.894-1.009 2.947-1.093 1.061-.098 2.088.111 3.082.628.426.221.805.481 1.136.779.346.306.638.629.876.969.26.334.459.68.596 1.04.159.353.25.698.274 1.035a2.52 2.52 0 0 1-.069.965l-.791-.195 1.455-2.489 3.238 1.682-5.4 10.393c-.479.923-1.045 1.665-1.698 2.228-.646.584-1.368.984-2.165 1.201-.791.238-1.629.289-2.515.154s-1.803-.45-2.755-.944zm4.047-7.581c.553.288 1.092.414 1.615.38a2.79 2.79 0 0 0 1.479-.557c.456-.322.839-.782 1.148-1.378s.466-1.173.467-1.732a2.6 2.6 0 0 0-.395-1.53c-.264-.462-.674-.837-1.227-1.125-.54-.28-1.075-.396-1.605-.347a2.81 2.81 0 0 0-1.48.557c-.441.33-.817.793-1.127 1.389s-.472 1.17-.488 1.721c-.001.558.13 1.068.395 1.53.272.448.678.812 1.218 1.092zm7.57 7.395l5.875-11.309 3.237 1.682-1.088 2.355-.815-.098a3.85 3.85 0 0 1 1.55-.953c.633-.212 1.3-.299 2.001-.259a4.86 4.86 0 0 1 1.988.546c.852.442 1.477.992 1.874 1.65.405.643.576 1.39.513 2.241-.056.836-.342 1.751-.858 2.745l-3.607 6.943-3.429-1.781 3.463-6.666c.236-.455.368-.864.395-1.229a1.46 1.46 0 0 0-.254-.97c-.174-.289-.457-.526-.847-.711a2.55 2.55 0 0 0-.908-.282c-.3-.048-.59-.027-.871.062-.273.074-.525.195-.757.364-.217.175-.396.398-.536.668l-3.519 6.772-1.682-.874-1.022-.531-.703-.365z" fill="#fff"/><path d="M227.211 359.279c16.844-13.455 41.904-6.742 49.767 13.331l13.696 34.962a31.99 31.99 0 0 0 4.793 8.301l23.435 29.338c13.455 16.844 6.743 41.904-13.331 49.767l-34.962 13.696a31.97 31.97 0 0 0-8.3 4.793l-29.338 23.435c-16.845 13.455-41.905 6.743-49.768-13.331l-13.695-34.962a32 32 0 0 0-4.793-8.3l-23.436-29.338c-13.455-16.845-6.742-41.904 13.331-49.768l34.962-13.695a32.02 32.02 0 0 0 8.301-4.793l29.338-23.436z" fill="url(#H)"/><path d="M161.061 438.918l.888-3.316 2.736.733 2.571-9.598-2.736-.732.888-3.315 9.435 2.527-.888 3.315-2.758-.739-2.571 9.598 2.759.739-.888 3.315-9.436-2.527zm12.813 3.432l4.595-17.156 3.709.994-4.595 17.155-3.709-.993zm7.041 1.886l4.595-17.156 3.709.994-4.595 17.155-3.709-.993zm11.032 3.228c-.912-.244-1.641-.647-2.186-1.207-.526-.571-.868-1.276-1.024-2.113-.142-.833-.074-1.767.204-2.802l2.037-7.604 3.732.999-1.9 7.094c-.133.495-.169.941-.11 1.338a1.91 1.91 0 0 0 .472 1.02c.259.269.606.461 1.038.577.325.087.633.111.925.073a2.04 2.04 0 0 0 .813-.254 2.27 2.27 0 0 0 .644-.548c.178-.234.309-.505.392-.814l1.968-7.349 3.733 1-3.298 12.31-3.5-.938.514-2.57.77-.092c-.342.537-.792.98-1.349 1.328-.553.332-1.168.557-1.845.673-.673.102-1.35.061-2.03-.121zm14.834 3.949c-1.206-.323-2.22-.802-3.044-1.437-.808-.631-1.396-1.343-1.763-2.137l2.77-1.345c.351.608.797 1.108 1.337 1.501.545.378 1.088.639 1.629.784.216.058.416.087.598.086s.338-.025.467-.074a1.03 1.03 0 0 0 .359-.227.96.96 0 0 0 .205-.392c.082-.309.007-.586-.225-.83-.119-.115-.326-.27-.621-.465l-1.153-.706c-.676-.38-1.252-.766-1.727-1.159-.455-.403-.807-.82-1.056-1.251-.222-.408-.366-.827-.433-1.259-.062-.448-.027-.919.105-1.413a3.2 3.2 0 0 1 .81-1.448c.403-.389.874-.694 1.413-.914a5.16 5.16 0 0 1 1.781-.342 6.51 6.51 0 0 1 1.929.218c.68.182 1.309.434 1.886.754s1.09.689 1.541 1.108a6.65 6.65 0 0 1 1.171 1.382l-2.531 1.658a5.03 5.03 0 0 0-.765-.95 4.99 4.99 0 0 0-.929-.796c-.338-.223-.662-.376-.971-.459a2.72 2.72 0 0 0-.644-.098 1.07 1.07 0 0 0-.491.068c-.144.044-.264.119-.358.227-.091.091-.157.214-.199.369a.93.93 0 0 0-.002.471 1.19 1.19 0 0 0 .278.447c.13.135.348.309.655.524l1.279.79a12.22 12.22 0 0 1 1.698 1.175c.459.388.798.793 1.016 1.216.177.329.279.688.308 1.076.032.374-.005.761-.113 1.163-.211.788-.624 1.431-1.237 1.929-.595.487-1.326.805-2.194.953-.863.133-1.79.068-2.779-.197zm8.411 2.004L219.321 438l3.709.994-4.129 15.417-3.709-.994zm.248-9.648l.87-3.246 8.276 2.217-.869 3.246-8.277-2.217zm7.968 11.849l3.298-12.31 3.524.944-.912 4.054-.491-.951a5.16 5.16 0 0 1 1.382-1.543 5.24 5.24 0 0 1 1.842-.849c.655-.156 1.307-.147 1.956.027a4.03 4.03 0 0 1 .746.275 6.32 6.32 0 0 1 .629.342l-2.119 3.83c-.141-.153-.35-.301-.627-.441-.258-.152-.541-.269-.85-.352a2.51 2.51 0 0 0-1-.069c-.323.029-.613.126-.872.288s-.49.374-.692.635a2.95 2.95 0 0 0-.429.953l-1.652 6.167-3.733-1zm14.518 4.112c-1.036-.277-1.891-.796-2.565-1.556-.655-.772-1.093-1.701-1.316-2.788-.218-1.102-.164-2.263.163-3.484.336-1.252.871-2.293 1.607-3.123s1.594-1.403 2.573-1.721c.984-.333 2.009-.356 3.075-.07.587.157 1.098.385 1.531.683.449.302.818.658 1.106 1.066.292.393.516.826.671 1.298.159.457.241.926.244 1.407l-.74-.297.783-2.921 3.686.987-3.298 12.31-3.755-1.006.795-2.967.84.2a4.07 4.07 0 0 1-.932 1.067 4.7 4.7 0 0 1-1.293.747 5.2 5.2 0 0 1-1.531.335 4.97 4.97 0 0 1-1.644-.167zm1.858-2.856c.572.153 1.101.154 1.589.003s.912-.435 1.272-.852c.364-.432.635-.981.813-1.645s.216-1.268.112-1.809a2.7 2.7 0 0 0-.669-1.397c-.343-.39-.8-.661-1.372-.815-.557-.149-1.081-.14-1.572.026-.473.156-.891.449-1.255.882-.36.417-.629.958-.807 1.622s-.218 1.275-.118 1.832c.103.541.32.997.652 1.367.347.375.799.637 1.355.786zm9.955 5.797l4.13-15.417 3.709.994-4.13 15.417-3.709-.994zm.249-9.648l.869-3.246 8.277 2.217-.87 3.246-8.276-2.217zm8.177 11.905l3.297-12.31 3.709.993-3.297 12.31-3.709-.993zm5.804-14.248c-.696-.186-1.201-.495-1.516-.927-.295-.444-.36-.975-.194-1.593.149-.556.472-.958.969-1.206s1.085-.281 1.765-.099c.696.187 1.191.501 1.487.945.299.428.368.943.207 1.546-.154.572-.479.982-.976 1.23-.481.252-1.062.287-1.742.104zm7.124 17.959c-1.283-.343-2.352-.928-3.208-1.753a6.65 6.65 0 0 1-1.756-2.906c-.315-1.111-.307-2.285.024-3.521s.911-2.258 1.74-3.063c.844-.801 1.835-1.347 2.973-1.638 1.154-.287 2.372-.259 3.655.084s2.344.926 3.184 1.748a6.41 6.41 0 0 1 1.756 2.905c.315 1.111.307 2.285-.024 3.522s-.911 2.257-1.74 3.062a6.4 6.4 0 0 1-2.973 1.638c-1.138.292-2.348.266-3.631-.078zm.857-3.199c.556.149 1.088.142 1.595-.02a3 3 0 0 0 1.324-.863c.376-.412.639-.93.789-1.552.181-.614.212-1.194.093-1.74-.115-.56-.351-1.038-.709-1.432a2.78 2.78 0 0 0-1.372-.815 2.9 2.9 0 0 0-1.619.014c-.507.162-.951.458-1.33.886-.376.413-.639.93-.789 1.553-.181.614-.212 1.194-.093 1.739a3 3 0 0 0 .716 1.409c.373.398.838.672 1.395.821zm8.261 5.393l3.297-12.31 3.524.944-.555 2.535-.816.079c.319-.511.755-.932 1.307-1.265.573-.343 1.205-.571 1.898-.684s1.379-.078 2.059.105c.927.248 1.656.65 2.186 1.206.535.541.863 1.233.984 2.078.126.828.044 1.784-.246 2.866l-2.024 7.557-3.732-1 1.943-7.256c.133-.494.173-.923.121-1.284a1.46 1.46 0 0 0-.457-.893c-.232-.244-.559-.415-.981-.511-.324-.087-.64-.114-.947-.08a1.87 1.87 0 0 0-.837.248c-.251.132-.471.304-.661.519-.174.218-.301.474-.379.768l-1.975 7.372-1.832-.491-1.112-.298-.765-.205z" fill="#fff"/></g><defs><linearGradient id="B" x1="92.481" y1="56.13" x2="307.237" y2="163.273" xlink:href="#I"><stop stop-color="#c6d4fd"/><stop offset="1" stop-color="#e1e9fa"/></linearGradient><linearGradient id="C" x1="376.272" y1="105.98" x2="614.076" y2="138.368" xlink:href="#I"><stop stop-color="#c6d4fd"/><stop offset="1" stop-color="#e1e9fa"/></linearGradient><linearGradient id="D" x1="403.74" y1="325.549" x2="483.533" y2="551.897" xlink:href="#I"><stop stop-color="#c6d4fd"/><stop offset="1" stop-color="#e1e9fa"/></linearGradient><linearGradient id="E" x1="499.89" y1="308.967" x2="633.095" y2="187.589" xlink:href="#I"><stop stop-color="#b7fe9b"/><stop offset="1" stop-color="#9afdce"/></linearGradient><linearGradient id="F" x1="252.634" y1="268.195" x2="396.429" y2="177.497" xlink:href="#I"><stop stop-color="#b7fe9b"/><stop offset="1" stop-color="#9afdce"/></linearGradient><linearGradient id="G" x1="47.343" y1="228.207" x2="228.702" y2="234.378" xlink:href="#I"><stop stop-color="#b7fe9b"/><stop offset="1" stop-color="#9afdce"/></linearGradient><linearGradient id="H" x1="135.372" y1="422.719" x2="309.411" y2="390.439" xlink:href="#I"><stop stop-color="#b7fe9b"/><stop offset="1" stop-color="#9afdce"/></linearGradient><linearGradient id="I" gradientUnits="userSpaceOnUse"/></defs></svg>